<?xml version="1.0" encoding="utf-8"?>
<!-- Generator: Adobe Illustrator 19.2.1, SVG Export Plug-In . SVG Version: 6.00 Build 0)  -->
<!DOCTYPE svg PUBLIC "-//W3C//DTD SVG 1.1//EN" "http://www.w3.org/Graphics/SVG/1.1/DTD/svg11.dtd">
<svg version="1.1" id="Layer_1" xmlns="http://www.w3.org/2000/svg" xmlns:xlink="http://www.w3.org/1999/xlink" x="0px" y="0px"
	 viewBox="0 0 141 60" style="enable-background:new 0 0 141 60;" xml:space="preserve">
<style type="text/css">
	.st0{fill:#CCCCCC;}
</style>
<g>
	<rect x="44.4" y="26.1" class="st0" width="1.7" height="9"/>
	<polygon class="st0" points="67.7,26.1 64.9,26.1 63.2,26.1 60.2,26.1 60.2,27.7 63.2,27.7 63.2,35.2 64.9,35.2 64.9,27.7 
		67.7,27.7 	"/>
	<path class="st0" d="M38.5,26.1l-3.9,0v1.6h0v5.9h0v1.6h0v0h1.7v0l2.2,0c2.5,0,4.5-2,4.5-4.5v0C43,28.2,41,26.1,38.5,26.1z
		 M41.4,30.8c0,1.6-1.3,2.8-2.8,2.8h-2.3v-5.9h2.3c1.6,0,2.8,1.3,2.8,2.8V30.8z"/>
	<polygon class="st0" points="78,33.6 78,26.1 76.3,26.1 76.3,35.2 77,35.2 78,35.2 82.6,35.2 82.6,33.6 	"/>
	<polygon class="st0" points="93.4,26.1 90.7,26.1 88.5,26.1 85.7,26.1 85.7,28.4 88.5,28.4 88.5,35.2 90.7,35.2 90.7,28.4 
		93.4,28.4 	"/>
	<polygon class="st0" points="109.1,28.4 109.1,26.1 104.7,26.1 103,26.1 102.5,26.1 102.5,35.2 103,35.2 104.7,35.2 109.1,35.2 
		109.1,33 104.7,33 104.7,31.8 108.2,31.8 108.2,29.5 104.7,29.5 104.7,28.4 	"/>
	<path class="st0" d="M124.5,26.1h-1.9H121h-0.6v9h0.6h1.6h1.9c2.5,0,4.5-2,4.5-4.5S127,26.1,124.5,26.1z M126.6,30.8
		c0,1.2-1,2.2-2.2,2.2h-1.8v-4.6h1.8c1.2,0,2.2,1,2.2,2.2V30.8z"/>
	<rect x="57.9" y="26.1" class="st0" width="1.7" height="9"/>
	<path class="st0" d="M99,35.2h2.6l-1.9-3.3c0.9-0.5,1.5-1.5,1.5-2.6v0c0-1.7-1.4-3.1-3.1-3.1h-1.6h-1.6h-0.6v9h2.2v-2.8h0.9
		L99,35.2z M96.4,28.4H98c0.5,0,0.9,0.4,0.9,0.9v0c0,0.5-0.4,0.9-0.9,0.9h-1.6V28.4z"/>
	<polygon class="st0" points="116.5,26.1 116.5,31.2 112.9,26.1 110.7,26.1 110.7,35.2 112.9,35.2 112.9,30.1 116.5,35.2 
		118.7,35.2 118.7,26.1 	"/>
	<path class="st0" d="M68.3,35.2l0.8-1.9h4.1l0.8,1.9h1.7l-3.8-9h-1.5l-3.8,9H68.3z M71.1,28.4l1.4,3.3h-2.8L71.1,28.4z"/>
	<path class="st0" d="M52.3,30.2v1.4h2.5v0.7c-0.5,1-1.6,1.6-2.8,1.6c-1.8,0-3.2-1.4-3.2-3.2s1.4-3.2,3.2-3.2c1.1,0,2.1,0.6,2.7,1.4
		l1.5-0.4C55.4,27,53.9,26,52.1,26c-2.6,0-4.7,2.1-4.7,4.7c0,2.6,2.1,4.7,4.7,4.7c1,0,2-0.3,2.8-0.9v0.7h1.4v-3.6v-0.3v-1.1H52.3z"
		/>
	<g>
		<path class="st0" d="M133.7,29.7c1.9,0.5,2.8,1.5,2.8,3c0,1.5-1.5,2.7-3.4,2.7c-1.8,0-3.3-1.1-3.4-2.4l2.1-0.7
			c0.1,1.2,1.3,1.2,1.3,1.2c0.6,0,1.1-0.3,1.1-0.8c0-0.8-1.6-1.1-1.6-1.1c-2.1-0.6-2.9-1.4-2.9-2.8c0-1.5,1.5-2.7,3.4-2.7
			c1.8,0,3.3,1.1,3.4,2.4l-2.1,0.7c-0.1-1.2-1.3-1.2-1.3-1.2c-0.6,0-1.1,0.2-1.1,0.6c0,0.4,0.2,0.6,1,0.9L133.7,29.7z"/>
	</g>
	<path class="st0" d="M4.5,19.5v22.2H27V19.5H4.5z M9.6,32.1h2.4v1H9.6V32.1z M9.6,33.4h2.4v1H9.6V33.4z M14.3,37H9.6v-1h4.7V37z
		 M14.3,35.7H9.6v-1h4.7V35.7z M22.2,31.8h-5.1V37h-2.4v-5.1H9.6v-2.4h5.1v-5.1h2.4v5.1h5.1V31.8z"/>
</g>
</svg>
