<?xml version="1.0" encoding="utf-8"?>
<!-- Generator: Adobe Illustrator 19.2.1, SVG Export Plug-In . SVG Version: 6.00 Build 0)  -->
<!DOCTYPE svg PUBLIC "-//W3C//DTD SVG 1.1//EN" "http://www.w3.org/Graphics/SVG/1.1/DTD/svg11.dtd">
<svg version="1.1" id="Layer_1" xmlns="http://www.w3.org/2000/svg" xmlns:xlink="http://www.w3.org/1999/xlink" x="0px" y="0px"
	 viewBox="0 0 141 60" style="enable-background:new 0 0 141 60;" xml:space="preserve">
<style type="text/css">
	.st0{fill:#CCCCCC;}
</style>
<g>
	<path class="st0" d="M64.3,32.7c-0.3-0.9-1-1.6-2-1.9c-0.7-0.2-1-0.3-3-0.3h-1l-0.4,0l-0.3,0v0h0v0.3c0,0.2,0,0.6,0,0.9l0,0.3v0.2
		h0v0.1l0.7,0l1.3,0l1.1,0c0.8,0,0.9,0,1.1,0.1c0,0,0,0,0.1,0c0.1,0.1,0.3,0.1,0.4,0.2c0,0,0,0,0,0c0,0,0,0,0,0
		c0.3,0.3,0.5,0.7,0.5,1.2v0.3l-1.1,0h-0.8c-0.9,0-1.7,0-2.1,0c-0.5,0-0.6,0-0.8,0.1c-1.1,0.3-1.9,1-2.1,1.9c0,0.1,0,0.2,0,0.3
		c0,0.1,0,0.2,0,0.4c0,0.2,0,0.5,0,0.7h0l0,0.1c0,0.3,0,0.6,0.1,0.7c0,0.1,0.1,0.3,0.1,0.4c0.1,0.1,0.1,0.3,0.2,0.4
		c0.1,0.2,0.2,0.4,0.3,0.5c0.2,0.2,0.4,0.4,0.6,0.5c0.2,0.1,0.4,0.2,0.6,0.3c0.2,0.1,0.5,0.1,0.7,0.2c0.2,0,1.1,0,2.1,0
		c1.9,0,1.9,0,2.5-0.3c0.2-0.1,0.4-0.2,0.6-0.4c0.1-0.1,0.1-0.1,0.2-0.2c0.3-0.3,0.4-0.4,0.6-0.8c0.2-0.4,0.3-0.6,0.3-0.9l0-0.1
		l0-0.2c0-0.4,0-1,0-2.1C64.6,33.6,64.6,33.5,64.3,32.7z M59,36c0.4,0,0.9,0,1.7,0l1.8,0h0.2l0,0.9c0,0.6,0,0.8-0.1,1
		c-0.1,0.1-0.1,0.3-0.2,0.4c-0.2,0.3-0.4,0.5-0.7,0.7l-0.1,0.1c-0.1,0.1-0.3,0.1-1,0.1l-0.2,0c-0.1,0-0.1,0-0.2,0c0,0-0.1,0-0.1,0
		c-0.6,0-1.2,0-1.3,0c-0.5-0.1-1-0.5-1.1-0.9c-0.1-0.3-0.1-0.8,0-1.1c0,0,0,0,0-0.1c0-0.1,0-0.1,0.1-0.2c0.2-0.4,0.6-0.6,1.1-0.7
		C58.8,36,58.9,36,59,36z"/>
	<path class="st0" d="M54.6,33c-0.1-0.5-0.3-0.9-0.6-1.2c0,0,0-0.1-0.1-0.1c0,0,0,0,0,0c0,0,0,0,0-0.1c0,0,0,0,0,0c0,0,0,0,0,0
		c0,0,0,0-0.1-0.1c0,0,0,0,0,0c0,0,0,0,0,0c0,0,0,0-0.1-0.1c0,0,0,0,0,0c0,0,0,0,0,0c0,0,0,0,0,0c0,0,0,0,0,0
		c-0.4-0.3-0.7-0.5-1.2-0.6c-0.1,0-0.2,0-0.2-0.1l-0.1,0l-0.1,0c-0.2,0-0.6,0-1.6-0.1c-1.3,0-1.6,0-2,0.1c0,0-0.1,0-0.1,0
		c-0.2,0-0.3,0.1-0.5,0.1c-1,0.3-1.8,1.1-2.1,2l-0.1,0.3v1c0,0.3,0,0.7,0,1.2c0,1.2,0,1.9,0,2.3c0,0.5,0,0.5,0.1,0.7
		c0.1,0.4,0.3,0.7,0.6,1c0.2,0.2,0.4,0.4,0.6,0.6c0.4,0.3,0.7,0.5,1.2,0.7l0.4,0.1l2.2,0l2.2,0V41c0,0,0,0,0,0l0,0.1
		c0,0.2-0.1,0.6-0.2,0.8c-0.1,0.3-0.3,0.5-0.5,0.6c-0.1,0-0.1,0.1-0.2,0.1l-0.1,0c0,0,0,0,0,0c-0.3,0.1-0.3,0.1-2.2,0.1l-2,0v0v0v0
		v0v0.8h0v0h0h0v0h0v0.9l0,0v0h0v0l0,0l0,0l0,0v0l0,0l0.3,0h1.6c0,0,0,0,0,0h0.2c2.4,0,2.6,0,3.3-0.4c0.8-0.4,1.4-1.2,1.6-1.9
		c0,0,0-0.1,0-0.2c0-0.2,0-0.5,0-1.2C54.7,38.2,54.7,33.4,54.6,33z M52,32.7c0.3,0.2,0.6,0.5,0.7,0.9c0,0,0,0.1,0,0.1
		c0,0,0,0.1,0,0.1c0,0,0,0,0,0c0,0.2,0,0.6,0,1.8c0,1,0,2.1,0,2.6l0,0.8l-0.1,0l-1.7,0c-0.8,0-1.2,0-1.6,0c-0.5,0-0.7-0.1-0.9-0.2
		c-0.2-0.1-0.4-0.2-0.6-0.4c-0.3-0.3-0.4-0.6-0.5-1c0-0.2,0-0.6,0-1.7c0-1.4,0-1.7,0.1-1.9c0.2-0.6,0.6-1,1.3-1.2
		c0.3-0.1,0.4-0.1,1.3-0.1C51.2,32.4,51.5,32.4,52,32.7z"/>
	<path class="st0" d="M34.6,34c0-0.7-0.1-1.2-0.4-1.8c-0.4-0.7-1.1-1.4-1.9-1.6c0,0-0.1,0-0.2,0l0,0l-0.1,0c-0.1,0-0.2,0-0.3,0
		c-0.3,0-0.7,0-1.1,0c-1,0-2.1,0-2.4,0.1c0,0,0,0,0,0h0l0,0c0,0,0,0,0,0c-0.1,0-0.1,0-0.1,0c-0.1,0-0.1,0-0.2,0.1
		c-0.9,0.3-1.7,1-2,1.9c-0.1,0.2-0.1,0.4-0.1,1.7c0,0.8,0,2,0,2.6c0,0.1,0,0.2,0,0.3c0,0.1,0,0.2,0,0.3c0,0.1,0,0.1,0,0.2h0l0,0.1
		c0,0.2,0,0.3,0,0.5c0,0.3,0.1,0.5,0.3,0.8c0.5,0.9,1.3,1.4,2.3,1.6c0.2,0,0.7,0.1,1.8,0.1c0.2,0,0.5,0,0.7,0l2,0l0-0.3v-0.4
		c0-0.4,0-0.8,0-0.9l0-0.1V39l0,0v0v0l0,0l0,0h-0.9l-1,0l-1.4,0c-0.3,0-0.4,0-0.5-0.1c-0.8-0.2-1.3-0.9-1.3-1.6v-0.3l0.2,0l2.1,0
		c2.4,0,2.6,0,3.1-0.3c0,0,0.1,0,0.1,0c0,0,0.1,0,0.1-0.1c0.2-0.1,0.4-0.2,0.6-0.4c0.4-0.4,0.6-0.8,0.7-1.3c0-0.1,0-0.1,0-0.2
		C34.6,34.6,34.6,34.3,34.6,34z M32.1,32.6c0,0,0.1,0.1,0.1,0.1c0.1,0.1,0.1,0.1,0.1,0.2c0.1,0.1,0.1,0.2,0.2,0.3c0,0,0,0,0,0
		c0.1,0.2,0.1,0.3,0.1,0.6c0,0.4,0,0.5-0.1,0.7c-0.1,0.3-0.5,0.7-0.8,0.8c-0.3,0.1-0.3,0.1-2.3,0.1l-0.9,0l-0.5,0h-0.6v-1
		c0-0.9,0-1,0.1-1.2c0.1-0.3,0.4-0.7,0.8-0.8c0.3-0.1,0.3-0.1,1.8-0.1c1.1,0,1.5,0,1.7,0.1C32,32.5,32.1,32.6,32.1,32.6z"/>
	<path class="st0" d="M108.9,28.8c-1.1-4.2-4.6-7.6-9.1-8.8c-0.8-0.2-1.3-0.3-2.1-0.3c-0.4,0-0.8,0-1.2,0h-0.3l-0.5,0l0,0l0,0l0,0v0
		l0,0v0v0.9v0v0.9v0l0,0v0h0.6l0.5,0c1.1,0,1.8,0.1,2.7,0.3c3.7,1,6.7,3.8,7.6,7.3c0.2,0.7,0.3,1.4,0.3,2.3c0,0.5,0,0.8,0,0.9
		c0,0,0.5,0,1,0l0.9,0l0-0.9C109.2,30.4,109.2,29.7,108.9,28.8z"/>
	<path class="st0" d="M104.4,32L104.4,32c0-0.2,0-0.4,0-0.6c0-0.7-0.1-1-0.1-1.3c-0.4-1.5-1.1-2.8-2.3-3.8c-1-0.9-2-1.4-3.3-1.7
		c-0.8-0.2-1.2-0.2-2.2-0.2h-0.1c-0.1,0-0.1,0-0.2,0h-0.1l-0.4,0v0h0h0v0h0h0l0,0.1v0.8v0.9h0.4l0.5,0c0.9,0,1.3,0.1,2,0.3
		c1.3,0.4,2.5,1.3,3.2,2.4c0,0,0,0,0,0c0,0,0,0,0,0c0.1,0.1,0.2,0.3,0.2,0.4c0,0,0,0.1,0.1,0.1c0,0,0,0.1,0,0.1
		c0.3,0.7,0.4,1.2,0.4,2.1l0,0.1l0,0.4l0,0.3h0l0,0h0.9h0.9l0,0h0L104.4,32z"/>
	<path class="st0" d="M114.3,31.8c0-0.2,0-0.3,0-0.5c0-3.1-1-6.2-2.8-8.8c-0.5-0.7-1-1.4-1.7-2c-0.3-0.3-0.6-0.6-1-0.9
		c-0.5-0.5-1.1-0.9-1.6-1.3c-2.3-1.6-4.9-2.6-7.6-3.1C98.7,15,98.2,15,96.9,15l-1.2,0v1v1l1.2,0c1.6,0,2.6,0.2,3.9,0.5
		c2.7,0.7,5.1,2,7,3.8c0.3,0.3,0.6,0.6,0.9,1c1.3,1.5,2.3,3.2,2.9,5.1c0.5,1.4,0.6,2.3,0.6,3.9c0,0.7,0,1.2,0,1.2c0,0,0.2,0.1,1,0.1
		l0.9,0l0,0h0V31.8z"/>
	<path class="st0" d="M94.9,33.9c0-0.5,0-0.6-0.1-0.9c-0.3-1.2-1.1-2-2.2-2.3c0,0,0,0-0.1,0c-0.1,0-0.2-0.1-0.4-0.1
		c-0.3,0-0.9,0-2.1,0l-1.7,0l-0.4,0.1c-0.7,0.3-1.3,0.7-1.7,1.2c-0.2,0.3-0.3,0.5-0.4,0.8c0,0,0,0,0,0c0,0,0,0,0,0l0,0l0,0.1
		c0,0.1,0,0.1,0,0.2l0,0.1h0c0,0.5,0,1.1-0.1,2.1c-0.1,2.5-0.1,2.5,0,2.9c0,0,0,0,0,0c0,0.1,0,0.2,0.1,0.3c0.2,0.5,0.5,1,0.9,1.3
		c0.4,0.4,1.1,0.6,1.7,0.7c0,0,0.1,0,0.3,0c0,0,0,0,0,0c0.1,0,1,0,2.1,0l2,0l0,0h0v0l0,0v0l0,0l0,0l0,0l0,0l0,0l0,0v-0.8V39l-0.4,0
		l-1.5,0l-1.4,0c-0.3,0-0.4,0-0.5,0c-0.3-0.1-0.6-0.2-0.9-0.5c-0.3-0.3-0.5-0.6-0.5-1.1l0-0.2v-0.2l0.1,0l2.2,0c2,0,2.4,0,2.7-0.1
		c1-0.3,1.7-0.9,1.9-1.8c0.1-0.3,0.1-0.4,0.1-0.9C94.9,34.1,94.9,34,94.9,33.9z M92.2,32.4L92.2,32.4c0.5,0.3,0.8,0.7,0.9,1.2
		c0,0.1,0,0.2,0,0.3c0,0.1,0,0.2,0,0.3c-0.1,0.6-0.5,1.1-1.2,1.2c0,0,0,0,0,0c-0.3,0-0.8,0-1.9,0l-1.8,0h-0.3v-0.6l0-0.4
		c0-1,0-1,0.1-1.3c0.1-0.2,0.2-0.4,0.4-0.5c0.4-0.3,0.5-0.3,2.2-0.3l1.3,0C92,32.4,92.1,32.4,92.2,32.4z"/>
	<path class="st0" d="M84.8,40c0-0.2,0-0.5,0-0.8l0-0.7h0c0-0.6,0-1.2,0-1.7l0-0.3h0c0-0.8,0-1.5,0-2c0-0.2,0-0.3,0-0.5l0-1l0,0
		l-0.1-0.3c-0.2-0.7-0.7-1.3-1.3-1.7c-0.3-0.2-0.7-0.3-1.1-0.4l-0.1,0l-0.1,0c0,0-0.1,0-0.1,0c-0.5-0.1-2.4-0.1-3.2,0
		c-0.1,0-0.2,0-0.3,0h-0.1l-0.1,0c0,0,0,0,0,0c-1.3,0.3-2.2,1.3-2.5,2.4c-0.1,0.5-0.1,4.4,0,4.9c0.2,1,1,2,2,2.4
		c0.2,0.1,0.4,0.2,0.6,0.2l0.2,0.1h0.4c0.4,0,1,0,1.9,0h2.1l0,0.1l0,0.2c-0.1,0.6-0.3,1-0.7,1.3c-0.1,0.1-0.2,0.1-0.3,0.2l-0.1,0
		c0,0,0,0,0,0c-0.3,0.1-0.3,0.1-2.3,0.1l-2,0v0.9v0h0v0.9h0l0,0l0,0v0l0,0v0h0v0l0,0l0,0h0v0l0.6,0l0.8,0c1.5,0,2.3,0,2.8,0l0.2,0
		l0.1,0c0.2,0,0.4-0.1,0.6-0.2c0.8-0.3,1.6-1,1.9-1.8l0.1-0.3v-0.6c0-0.1,0-0.2,0-0.3c0,0,0-0.1,0-0.1l0-0.8l0,0
		C84.8,40.2,84.8,40.1,84.8,40z M81.1,32.3c0.9,0.1,1.4,0.4,1.6,0.8c0.2,0.3,0.2,0.5,0.3,1.5c0,0.4,0,1,0,1.8c0,0,0,0,0,0.1v0v1.2
		v0.1l0,1l-0.4,0l-1.4,0c-1.9,0-2.1,0-2.6-0.3c-0.5-0.3-0.8-0.7-1-1.3c-0.1-0.2-0.1-0.5-0.1-1.9c0-1.6,0-1.7,0.1-2
		c0.1-0.3,0.5-0.7,0.9-0.9c0,0,0.1,0,0.1-0.1c0,0,0,0,0,0c0.2-0.1,0.5-0.1,0.7-0.2c0.2,0,0.4,0,0.8,0c0.3,0,0.5,0,0.7,0
		C81,32.3,81.1,32.3,81.1,32.3z"/>
	<path class="st0" d="M99.9,30.6L99.9,30.6L99.9,30.6L99.9,30.6l-1.1,0H98l-0.2,0l0-0.5c0-0.3,0-0.7,0-1.1v-0.6h0v-0.1h-1h-0.5h-0.4
		h-0.1l0,5c0,1.7,0,2.8,0,3.6h0l0,0.2c0,0.3,0,0.6,0,0.8l0,0.5l0.1,0.2c0,0.2,0.1,0.3,0.2,0.5c0.2,0.3,0.4,0.6,0.8,0.9c0,0,0,0,0,0
		c0,0,0,0,0.1,0c0.1,0.1,0.2,0.2,0.4,0.2c0.2,0.1,0.4,0.2,0.5,0.2c0.2,0,0.5,0.1,1.2,0.1l0.1,0l0.9,0v0l0,0v0h0v-0.9V39h0v0h0l0,0v0
		h0h-0.6l-0.1,0c-0.7,0-0.8,0-1-0.2c-0.1-0.1-0.3-0.2-0.4-0.4l-0.1-0.2c0,0,0-0.1,0-0.1l0-0.7l0-2c0-0.6,0-1.1,0-1.6l0-1.5h1.1h0
		h1.1h0v-0.9L99.9,30.6L99.9,30.6L99.9,30.6z"/>
	<path class="st0" d="M74.7,26.8L74.7,26.8L74.7,26.8L74.7,26.8L74.7,26.8l-0.9,0h-0.9v0h0l0,0.7l0,0.5v0.7v0v1.9l-1.4,0
		c-0.2,0-0.4,0-0.6,0l0,0c-0.3,0-0.5,0-0.7,0c-1.2,0-1.5,0-1.7,0.1c-1.4,0.4-2.3,1.3-2.7,2.6c-0.1,0.2-0.1,0.3-0.1,0.8
		c0,0.4,0,1,0,1.9c0,0.2,0,0.4,0,0.5c0,0,0,0.1,0,0.1h0l0,0.4c0,0.3,0,0.6,0,0.7c0,0.5,0.1,0.7,0.3,1.1c0.5,1,1.5,1.7,2.6,2
		c0,0,0.1,0,0.1,0c0,0,0,0,0,0c0,0,0.1,0,0.3,0c0.3,0,0.7,0,1.2,0c0,0,0,0,0,0c0.8,0,1.3,0,1.5,0c0.3,0,0.3,0,0.5-0.1
		c0.8-0.3,1.7-1.2,2.1-2.1c0.1-0.2,0.2-0.3,0.2-0.5l0.1-0.2l0-0.3l0-0.1c0-0.1,0-0.3,0-0.5v-0.4h0c0-0.2,0-0.3,0-0.5v-1.2h0
		c0-0.7,0-1.5,0-2.4c0-0.1,0-0.1,0-0.2v-1.5l0-0.6h0v-1.4L74.7,26.8z M72.9,34.7c0,2.6,0,2.6-0.3,3.2c-0.2,0.4-0.5,0.7-0.8,0.8
		l-0.2,0.1c-0.1,0-0.1,0-0.2,0l-1.2,0c-0.8,0-1.2,0-1.4,0c-0.1,0-0.2-0.1-0.3-0.1c0,0-0.1,0-0.1-0.1c-0.4-0.2-0.6-0.6-0.8-1
		c-0.1-0.3-0.1-1.9-0.1-2.9c0-0.3,0-0.6,0.1-0.7c0,0,0,0,0,0c0.2-0.7,0.7-1.3,1.4-1.5c0.3-0.1,0.4-0.1,2.1-0.1h1.8V34.7z"/>
	<path class="st0" d="M44.5,40.5l0-0.2v-1.1v-1.5v-0.2c0-0.7,0-1.2,0-1.7V35h0c0-1-0.1-1.2-0.2-1.6c-0.5-1.3-1.5-2.3-2.9-2.6
		c-0.1,0-0.1,0-0.2,0L41,30.6l-0.3,0c-0.5,0-1.2,0-2.7-0.1l-2.5,0v5.1h0v5.1h0v0h0.9h0.9v-4.2v-4.2l0,0l1.5,0c0.3,0,0.6,0,0.9,0
		l0.4,0c0.2,0,0.3,0,0.4,0c0,0,0.1,0,0.1,0c1,0.2,1.8,1.1,2,2.2c0,0.1,0,0.2,0,0.4l0,2.7l0,0.6l0,2.5h0v0h0h0.9h0h0.9h0l0,0h0
		L44.5,40.5z"/>
</g>
</svg>
