<?xml version="1.0" encoding="utf-8"?>
<!-- Generator: Adobe Illustrator 19.2.0, SVG Export Plug-In . SVG Version: 6.00 Build 0)  -->
<!DOCTYPE svg PUBLIC "-//W3C//DTD SVG 1.1//EN" "http://www.w3.org/Graphics/SVG/1.1/DTD/svg11.dtd">
<svg version="1.1" id="Layer_1" xmlns="http://www.w3.org/2000/svg" xmlns:xlink="http://www.w3.org/1999/xlink" x="0px" y="0px"
	 viewBox="0 0 76.2 76.2" style="enable-background:new 0 0 76.2 76.2;" xml:space="preserve">
<style type="text/css">
	.st0{fill:url(#SVGID_1_);}
	.st1{fill:url(#SVGID_2_);}
	.st2{fill:url(#SVGID_3_);}
	.st3{fill:url(#SVGID_4_);}
</style>
<g id="ZcFnwI.tif">
	<g>
		<linearGradient id="SVGID_1_" gradientUnits="userSpaceOnUse" x1="38.3708" y1="-2" x2="38.3708" y2="77.8805">
			<stop  offset="0" style="stop-color:#00C9FF"/>
			<stop  offset="1" style="stop-color:#0090FF"/>
		</linearGradient>
		<path class="st0" d="M35.7,0.6c1.8,0,3.6,0,5.4,0c0.8,0.1,1.7,0.2,2.5,0.3c7.3,1.1,13.9,4,19.5,8.8C73.6,18.8,78.3,33,75.2,46.6
			c-2.1,9.3-7.1,16.8-14.8,22.4c-5.7,4.1-12.1,6.5-19.1,7c-3.6,0.3-7.2,0.1-10.7-0.7c-7.2-1.5-13.4-4.9-18.7-10
			C5.9,59.4,2.3,52.3,1,44c-0.2-1-0.3-2-0.4-3c0-1.8,0-3.6,0-5.4c0-0.2,0.1-0.4,0.1-0.6c0.2-1.5,0.3-3,0.7-4.5
			C2.9,23.3,6.3,17,11.5,11.7c5.9-5.9,13-9.5,21.2-10.8C33.7,0.8,34.7,0.7,35.7,0.6z M64.1,57.8c0,0-0.1-0.1-0.1-0.1
			c-0.9,0.7-1.8,1.2-2.4,2.3c-0.3,0.5-0.9,0.9-1.4,1.4c-0.3,0.3-0.8,0.5-1.1,0.8c-1,1-2.2,1.9-3.5,2.5C55,65,54.2,65,53.5,65.3
			c-0.3,0.1-0.7,0.3-0.9-0.1c-0.1-0.2,0.1-0.6,0.2-0.9c0.3-0.7,0.8-1.3,1.1-1.9c0.4-1.1,0.7-2.3,1-3.4c0.1-0.2,0.1-0.4,0.1-0.6
			c-0.2-0.8,0.1-1.5,0.6-2.1c0.4-0.5,0.9-1,1-1.5c0.4-1.4,0.8-2.9,0-4.3c-0.5-0.9-0.5-1.8,0-2.7c0.4-0.7,0.1-1.2-0.8-1.1
			c-0.5,0-0.8-0.1-0.9-0.6c0-0.1-0.1-0.3-0.2-0.4c-0.3,0-0.6,0.1-1,0.1c-0.5,0.1-1,0.3-1.6,0.4c-0.8,0.1-1.6-0.1-2.4,0.2
			c-1.1,0.4-1.9-0.1-2.8-0.6c-0.9-0.6-1.7-1.3-2.3-2.2c-0.6-0.8-1.5-1.5-1.4-2.7c-0.5-0.5-0.3-1,0-1.5c0.6-0.9,0.5-1.7,0.1-2.6
			c-0.2-0.4-0.1-0.8,0.1-1.1c0.5-1,1.1-2,1.6-3c0.2-0.5,0.5-0.8,1-1.1c0.6-0.3,1.3-0.6,1.4-1.4c0.1-0.6,0.4-1,0.9-1.4
			c0.4-0.3,0.7-0.7,1.1-1c0-0.1,0-0.1,0-0.2c-0.9,0.2-1.2-0.3-1.5-0.9C48,26.2,48,25.9,48,25.5c0.1-0.4,0.1-0.9,0-1.3
			c-0.1-0.9,0.4-1.4,1.4-1.3c0.5,0.1,0.9,0.1,1.4,0.2c0-0.7-0.1-1-0.6-1c-0.6-0.1-0.8-0.4-0.8-0.9c0-0.1,0-0.2-0.1-0.3
			c-0.6-0.2-0.5-0.7-0.3-1.2c-0.3,0.1-0.5,0.2-0.6,0.2c-1,0.3-1.2,0.2-1.2-0.8c0,0,0-0.1,0-0.1C47,18,47,18,47.7,17.6
			c0.1-0.1,0.3-0.1,0.4-0.2c0.1-0.3,0.1-0.6,0.2-1c0.2-0.6,0.7-0.8,1.1-0.4c0.4,0.3,0.9,0.5,0.9,1.2c0,0.1,0.1,0.2,0.2,0.3
			c0.5,0.5,1,0.9,1.5,1.4c0.4-0.3,0.7-0.6,1-0.8c-0.1-0.4-0.2-0.7-0.3-0.9c-0.3-0.2-0.6-0.3-0.8-0.5c-0.4-0.4-0.7-0.9-0.9-1.4
			c-0.1-0.2-0.1-0.5,0-0.6c0.6-0.6,0.6-1.3,0.7-2.1c0.1-1.1,1.2-1.8,2.2-1.5c0.8,0.2,1.7,0.5,2.5,0.7c0.1,0,0.3-0.1,0.6-0.1
			c-0.5-0.4-0.8-0.6-1.2-0.9c-0.3-0.3-0.6-0.7-1-0.9C50.8,7.4,46.3,6,41.4,5.5c-3.1-0.3-6.2-0.1-9.3,0.4c-3.6,0.7-6.9,1.9-10.1,3.7
			c-0.1,0-0.1,0.1-0.2,0.2c0.2,0.1,0.4,0.2,0.5,0.2c0.8-0.7,1.6-1.1,2.5-1.3c0.2,0,0.4-0.1,0.6-0.2c0.6-0.4,1.2-0.5,1.8-0.5
			c0.3,0,0.6-0.1,0.9,0c0.4,0,0.8,0,1.2,0.1c0.3-0.1,0.6-0.2,1-0.3c0,0.3,0.1,0.6,0.1,0.8c0.3-0.3,0.7-0.7,1.1-1
			c0.6-0.4,0.6-0.4,1.1,0.1c0.2-0.2,0.4-0.5,0.6-0.7c0.5-0.3,0.9-0.6,1.4-0.9C34.8,6,35.2,6,35.4,6.1c0.4,0.2,0.9,0.5,1.2,0.9
			c0.4,0.4,0.7,0.5,1.1,0.2c0.4-0.3,0.9-0.5,1.5-0.5c0.6,0,1.2-0.1,1.9-0.1c0.6,0,1.2,0,1.6,0.4c0.3,0.4,0.7,0.5,1.2,0.7
			c0.3,0.1,0.6,0.3,0.7,0.5c0.1,0.4-0.3,0.5-0.6,0.6c0,0,0,0.1-0.1,0.1c0.3,0.9,0.1,1.8-0.2,2.6c-0.1,0.2-0.2,0.4-0.3,0.5
			c-0.8,0.3-1.5,0.6-2.3,0.8c-0.4,0.1-0.8,0.2-1.1,0.3c-0.4,0.2-0.8,0.4-1.3,0.5c-0.6,0.2-1.2,0.5-1.6,1c-0.2,0.3-0.5,0.6-0.8,0.8
			c-0.3,0.2-0.8,0.5-1.1,0.4c-0.4-0.1-0.9-0.5-1.2-0.9c-0.5-0.9-0.1-1.8,0.1-2.6c0-0.2,0.2-0.3,0.4-0.4c0.2-0.2,0.4-0.3,0.7-0.4
			c0-0.5,0-1,0-1.5c-0.5-0.2-1.4,0.2-1.3-0.9c-0.8,0.1-1.8,0.6-2.2,1c0.1,0.1,0.1,0.2,0.2,0.4c0.1,0.1,0.2,0.2,0.2,0.4
			c0.1,0.2,0.1,0.4,0.1,0.5c-0.2,0.3,0,0.5,0.1,0.8c0.3,0.5,0.3,0.6-0.2,0.9c-0.7,0.4-1.5,0.5-2.1,1.2c-0.1,0.1-0.2,0-0.3,0.1
			c-0.4,0-0.5,0.3-0.5,0.6c0,0.9-0.1,1.9-0.1,2.7c0.3,0.3,0.6,0.5,0.6,0.7c0,0.5-0.2,1-0.4,1.6c0,0.2,0,0.4,0,0.6
			c0.1,0.7,0,1-0.7,1.2c-0.5,0.1-1.1,0.2-1.6-0.1c-0.3-0.2-0.7-0.2-1.1-0.4c0.1,0.6,0,0.9-0.4,1.1c-0.8,0.3-1.6,0.6-2.4,1
			c-0.5,0.2-0.9,0.3-1.2-0.3c-0.4,0.1-0.7,0.2-1,0.4c-0.2,0.1-0.4,0.3-0.4,0.4c-0.2,0.6-0.6,0.8-1.2,0.8c-0.5,0-0.9,0.2-1.2,0.6
			c-0.4,0.5-0.9,0.8-1.4,1.2c-0.1,0.1-0.2,0.2-0.2,0.3c-0.1,0.6-0.5,0.9-1,1.2c-0.5,0.3-1,0.7-1.5,1c-0.2,0.2-0.4,0.4-0.6,0.6
			c-0.6,0.8-0.5,1.8-0.8,2.7c0.2,0.1,0.3,0.2,0.5,0.3c0.3,0.3,0.3,1,0,1.2c-0.3,0.2-0.7,0.1-1-0.2c-0.1-0.1-0.3-0.2-0.4-0.2
			c-0.6-0.1-0.7-0.2-0.7-0.8c0-0.6,0-1.2,0-2c-0.3,0-0.6,0-0.8,0.1c-0.6,0.5-0.6,0.5-1.1,0c-0.4-0.3-0.6-0.3-0.9,0.1
			c-1,1.3-1.5,2.7-1.7,4.3c0,0.5,0,0.9,0.6,1.2c0.1-0.2,0.2-0.3,0.2-0.4c0.1-0.8,0.6-1.1,1.3-1.1c0.1,0,0.3,0,0.4,0
			c0.2-0.1,0.4-0.2,0.6-0.4c0.5-0.7,1.2-0.9,2-0.4c0.6,0.4,1.2,0.8,1.7,1.2c0.4-0.2,0.9-0.4,0.9-0.4c0.3,0.4,0.4,0.8,0.7,1.3
			c0.6,0.2,1.5,0.5,2.3,0.8c0.1,0,0.2,0,0.3,0c0.7,0,1.4,0.1,1.9,0.6c0.4,0.3,0.8,0.8,0.6,1.3c-0.1,0.4-0.1,0.7-0.1,1.1
			c0.1,0.6,0,1.2,0.1,1.7c0,0.1,0.2,0.3,0.3,0.4c0.2,0.1,0.4,0.1,0.6,0.1c0.4,0.1,0.5,0.3,0.3,0.6c-0.2,0.4-0.3,0.8-0.6,1.3
			c0.4,0.2,0.8,0.7,1.2,0.7c1.1-0.1,2,0.6,2.7,1.1c0.8,0.5,1.3,1.4,1.9,2.1c0.7,0.8,1.5,1.4,2.5,1.5c1.5,0.1,2.7,0.6,4,1.3
			c0.3,0.2,0.7,0.4,0.8,0.7c0.2,0.5,0.4,1.2,0.2,1.7c-0.3,0.8-0.9,1.5-1.3,2.3c-0.1,0.2-0.3,0.5-0.2,0.6c0.4,1.2,0.2,2.4,0,3.5
			c-0.1,0.4-0.2,0.7-0.6,0.9c-0.6,0.3-1.1,0.6-1.6,0.9c0.1,0.2,0.1,0.4,0.2,0.6c0.4,0.8,0.3,1.6,0,2.4c-0.1,0.2-0.1,0.4-0.2,0.6
			c-0.1,0.3-0.2,0.5-0.1,0.8c0.1,0.3,0.1,0.7-0.2,1c-0.3,0.2-0.2,0.5,0,0.7c0.7,0.7,1.4,1.5,2.2,2.2c0.2,0.2,0.5,0.3,0.7,0.4
			c0.2-0.5,0.5-0.7,1-0.4c0.2,0.1,0.4,0.3,0.4,0.4c0,0.3-0.1,0.5-0.2,0.8c0.1,0,0.2,0,0.3,0.1c3.6,0.5,7.1,0.3,10.7-0.4
			c6.2-1.3,11.6-4.1,16.2-8.5c0.4-0.4,0.8-0.7,0.8-1.3c0-0.2,0.1-0.4,0.3-0.5c0.4-0.6,0.9-1.1,1.4-1.7
			C63.7,58.4,63.9,58.1,64.1,57.8z M5.5,39.3c0.2,15.3,11.7,28,24.7,30.9c-0.9-0.6-1.8-1.2-2.7-1.9c-0.8-0.6-1.7-1.3-2.4-2
			c-2-1.9-3.7-4-5.1-6.4c-0.6-0.9-1.3-1.7-2.3-2.1c-0.7-0.3-1.2-0.7-1.7-1.3c-1.2-1.3-2.1-3-3.5-4.1c0,0-0.1-0.1-0.1-0.1
			c-0.7-1.4-1.3-2.8-0.8-4.4c0.4-1.2-0.1-2.2-0.3-3.4c-0.6,0.4-1,0.2-1.4-0.3c-0.2-0.3-0.6-0.4-0.9-0.7c-0.2-0.2-0.4-0.4-0.5-0.6
			c-0.2-0.5-0.3-0.9-0.5-1.4C7.9,41.3,7.9,41,7.7,41c-0.7-0.4-1.2-1.1-1.4-1.8C6,39.2,5.8,39.2,5.5,39.3z M11.9,42.6
			c0.1-0.8,0.8-1.1,1.5-1.5c0.4-0.2,0.8,0,1.1-0.1c0.5-0.2,0.8,0,1,0.4c0.3,0.5,0.8,0.6,1.3,0.7c0.6,0.1,1.3,0,2,0
			c0-0.3,0-0.7,0-1.1c-0.1-0.6-0.2-1.1-0.3-1.7c-0.1-0.9-0.3-1.1-1.1-1.1c-1.4-0.1-2.8-0.2-4.2-0.3c-0.2,0.4-0.6,0.7-1.1,0.6
			c-0.5-0.1-1-0.4-1-1c-1,0-1.1-1.1-1.7-1.5c-0.2,0.5-0.4,1-0.6,1.6c-0.1,0.4-0.1,0.6,0.4,0.7c0.8,0.3,1.2,0.9,1.2,1.7
			c0,0.6-0.1,1.2-0.1,1.9c0,0.6,0.2,0.7,0.7,0.7C11.1,42.5,11.4,42.5,11.9,42.6z M58.2,28.6c0,0,0,0.1,0,0.1c1,0.4,1.9,0.7,2.9,1.1
			c0.5-0.8,0.9-0.9,1.9-0.6c0.5,0.2,1,0.3,1.5,0.5c0.1,0,0.2,0,0.3,0c0.3-0.4,0.8-0.2,1.2-0.2c0-0.4,0-0.7,0-1.1
			c-0.7,0-0.8-0.1-1.4-0.8c-0.2,0.1-0.7,0.1-0.7,0.2c-0.1,0.5-0.4,0.5-0.8,0.4c-0.3-0.1-0.7-0.1-0.9-0.4c-0.6-0.6-1.2-1.2-1.8-1.8
			c-0.1-0.1-0.3-0.2-0.5-0.4c-0.2,0.7-0.5,1.4-0.7,2C59,28.5,58.9,28.6,58.2,28.6z M52.2,27.3c1.7-0.7,3.5-0.4,5.1-0.7
			c0-0.2,0-0.5,0.1-0.7c0.2-0.2,0.5-0.2,0.9-0.3c-0.6-0.3-1-0.6-1.6-0.9c0,0.3,0.1,0.3,0.1,0.4c0.1,0.6,0,0.8-0.5,0.9
			c-0.5,0.1-0.6-0.2-0.7-0.6c-0.1-0.4-0.2-0.9-0.3-1.3c-0.3,0-0.5,0.1-0.7,0.1c-0.2,0-0.4,0-0.5,0c-0.2,0.3-0.2,0.6-0.4,0.8
			c-0.2,0.2-0.5,0.3-0.9,0.4C53.3,26.2,52.8,26.7,52.2,27.3z M25.1,14.3c-0.8-0.9-1.5-0.5-2.2-0.2c-0.2,0.1-0.5,0.2-0.7,0.3
			c-0.4,0.2-0.8,0.4-1.1,0.7c-0.1,0.1-0.3,0.4-0.3,0.5c0.1,0.5,0.3,0.9,0.5,1.4c0.3-0.1,0.5-0.2,0.7-0.3c0.7-0.2,1.3-0.5,1.6-1.2
			c0.1-0.2,0.3-0.3,0.5-0.4C24.4,14.8,24.8,14.5,25.1,14.3z M66.9,54.7c1.2-2.2,2.2-4.4,2.8-6.8c-1.5,2-2.9,4-3.4,6.5
			C66.5,54.5,66.7,54.6,66.9,54.7z M63.1,22.9c-0.2,0.4-0.3,0.7,0,1c0.3,0.4,0.6,0.1,0.9,0c0.5-0.2,1-0.3,1.4,0c0-0.1,0-0.1,0.1-0.2
			c-0.4-0.2-0.8-0.5-1.2-0.7C63.8,23.5,63.4,23.1,63.1,22.9z M57.1,17.3c-0.1-1-0.3-1.3-1.1-1.3c-0.1,0.5-0.1,1-0.2,1.6
			C56.3,17.5,56.7,17.4,57.1,17.3z M26,20.8c0-0.1,0.1-0.1,0.1-0.2c-0.1-0.2-0.2-0.5-0.3-0.5c-0.3-0.1-0.6-0.2-0.8,0.2
			c-0.1,0.3-0.4,0.4-0.5,0.7c-0.1,0.1-0.1,0.3-0.2,0.4C25,21.3,25.2,20.4,26,20.8z M27.3,13.7c0,0-0.1,0.1-0.1,0.1
			c0.3,0.4,0.5,0.8,0.8,1.2c0.1-0.1,0.2-0.2,0.4-0.3C28,14.4,27.7,14,27.3,13.7z"/>
		<linearGradient id="SVGID_2_" gradientUnits="userSpaceOnUse" x1="43.9759" y1="-2" x2="43.9759" y2="77.8805">
			<stop  offset="0" style="stop-color:#00C9FF"/>
			<stop  offset="1" style="stop-color:#0090FF"/>
		</linearGradient>
		<path class="st1" d="M44.1,14.9c-0.5-0.2-1-0.3-1.4-0.5c-0.1-0.1-0.2-0.3-0.2-0.4c0-0.1,0-0.2-0.1-0.3C42,13,42,12.8,42.8,12.8
			c0.7-0.1,1.4-0.1,2,0c0.4,0.1,0.7,0.4,1,0.7c0.1,0.1,0.1,0.6-0.1,0.6C45.2,14.4,44.6,14.6,44.1,14.9z"/>
		<linearGradient id="SVGID_3_" gradientUnits="userSpaceOnUse" x1="49.3877" y1="-2" x2="49.3877" y2="77.8805">
			<stop  offset="0" style="stop-color:#00C9FF"/>
			<stop  offset="1" style="stop-color:#0090FF"/>
		</linearGradient>
		<path class="st2" d="M51,9.3c0,0.3-0.8,0.8-1.1,0.7c-0.7-0.3-1.4-0.7-2-1.2c-0.3-0.2-0.1-0.5,0.2-0.5c0.5-0.1,1-0.2,1.5-0.2
			c0.3,0,0.6,0.2,0.8,0.4C50.7,8.7,50.8,9,51,9.3z"/>
		<linearGradient id="SVGID_4_" gradientUnits="userSpaceOnUse" x1="55.3307" y1="-2" x2="55.3307" y2="77.8805">
			<stop  offset="0" style="stop-color:#00C9FF"/>
			<stop  offset="1" style="stop-color:#0090FF"/>
		</linearGradient>
		<path class="st3" d="M55.2,49.1c-0.5,0-0.8-0.3-0.8-0.8c0-0.5,0.5-0.9,0.9-0.8c0.5,0,0.8,0.3,0.8,0.8
			C56.2,48.7,55.8,49.1,55.2,49.1z"/>
	</g>
</g>
</svg>
