<?xml version="1.0" encoding="utf-8"?>
<!-- Generator: Adobe Illustrator 19.2.1, SVG Export Plug-In . SVG Version: 6.00 Build 0)  -->
<!DOCTYPE svg PUBLIC "-//W3C//DTD SVG 1.1//EN" "http://www.w3.org/Graphics/SVG/1.1/DTD/svg11.dtd">
<svg version="1.1" id="Layer_1" xmlns="http://www.w3.org/2000/svg" xmlns:xlink="http://www.w3.org/1999/xlink" x="0px" y="0px"
	 viewBox="0 0 271.4 56.4" style="enable-background:new 0 0 271.4 56.4;" xml:space="preserve">
<style type="text/css">
	.st0{fill:#FFFFFF;}
	.st1{fill:none;stroke:#FFFFFF;stroke-miterlimit:10;}
</style>
<path class="st0" d="M28.1,56.4c-12,0-20.1-6-23.9-9.6c-1.4-1.3-2.3-3.1-2.6-5c-2-12.4-1.5-25.5-1.2-30.6c0.1-2,1.3-3.7,3.1-4.6
	C17.2,0,27.3,0,28.1,0.1C29,0,39.1,0,52.8,6.6c1.8,0.9,2.9,2.6,3.1,4.6l0,0c0.3,5.1,0.8,18.2-1.2,30.6c-0.3,1.9-1.2,3.7-2.6,5
	C48.3,50.4,40.2,56.4,28.1,56.4z M28,3C26.9,3,17.4,3.2,4.8,9.3C4,9.7,3.5,10.5,3.4,11.4c-0.3,5-0.8,17.8,1.2,30
	c0.2,1.3,0.8,2.5,1.8,3.3c3.4,3.3,10.8,8.8,21.8,8.8s18.4-5.5,21.8-8.8c0.9-0.9,1.6-2.1,1.8-3.3c1.9-12.1,1.5-25,1.2-30l0,0
	c-0.1-0.9-0.6-1.7-1.4-2.1C38.1,2.8,28.3,3,28.2,3l0,0L28,3C28.1,3,28.1,3,28,3z"/>
<path class="st0" d="M16.2,35.5L16.2,35.5c-1.6,0-2.9-1.3-2.9-2.9v-7.8c0-1.6,1.3-2.9,2.9-2.9h0c1.6,0,2.9,1.3,2.9,2.9v7.8
	C19,34.3,17.8,35.5,16.2,35.5z"/>
<path class="st0" d="M19.7,16.6l-8.4,4.2c-0.3,0.2-0.7,0-0.8-0.3l-0.1-0.2c-0.2-0.3,0-0.7,0.3-0.8l8.4-4.2c0.3-0.2,0.7,0,0.8,0.3
	l0.1,0.2C20.1,16,20,16.4,19.7,16.6z"/>
<path class="st0" d="M36.6,16.6l8.4,4.2c0.3,0.2,0.7,0,0.8-0.3l0.1-0.2c0.2-0.3,0-0.7-0.3-0.8l-8.4-4.2c-0.3-0.2-0.7,0-0.8,0.3
	l-0.1,0.2C36.1,16,36.3,16.4,36.6,16.6z"/>
<path class="st0" d="M28.1,41c0,0-5.2-0.1-12.1,0.7c-0.7,0.1-1.1,1-0.6,1.5c1.9,2.1,6.4,5.9,12.7,5.9s10.8-3.8,12.7-5.9
	c0.5-0.5,0.2-1.4-0.6-1.5C33.3,41,28.1,41,28.1,41z"/>
<path class="st0" d="M40.1,35.5L40.1,35.5c1.6,0,2.9-1.3,2.9-2.9v-7.8c0-1.6-1.3-2.9-2.9-2.9h0c-1.6,0-2.9,1.3-2.9,2.9v7.8
	C37.2,34.3,38.5,35.5,40.1,35.5z"/>
<g>
	<path class="st0" d="M108.1,49.2c-0.6,1.4-1.4,2.6-2.5,3.7c-1.1,1.1-2.3,1.9-3.7,2.5c-1.4,0.6-2.9,0.9-4.5,0.9h-3.2
		c-1.6,0-3.1-0.3-4.5-0.9c-1.4-0.6-2.6-1.4-3.7-2.5c-1.1-1.1-1.9-2.3-2.5-3.7c-0.6-1.4-0.9-2.9-0.9-4.5V0.3h4.7v19.1
		c1.1-1.3,2.4-2.3,3.9-3c1.5-0.7,3.2-1.1,4.9-1.1h1.2c1.6,0,3.1,0.3,4.5,0.9c1.4,0.6,2.6,1.4,3.7,2.5c1.1,1.1,1.9,2.3,2.5,3.7
		c0.6,1.4,0.9,2.9,0.9,4.5v17.8C109,46.2,108.7,47.7,108.1,49.2z M104.2,26.6c0-0.9-0.2-1.8-0.5-2.7c-0.4-0.8-0.8-1.6-1.5-2.2
		c-0.6-0.6-1.3-1.1-2.2-1.5c-0.8-0.4-1.7-0.5-2.7-0.5h-3.2c-0.9,0-1.8,0.2-2.7,0.5c-0.8,0.4-1.6,0.8-2.2,1.5
		c-0.6,0.6-1.1,1.3-1.5,2.2c-0.4,0.8-0.5,1.7-0.5,2.7v18.3c0,0.9,0.2,1.8,0.5,2.7c0.4,0.8,0.8,1.6,1.5,2.2c0.6,0.6,1.3,1.1,2.2,1.5
		c0.8,0.4,1.7,0.5,2.7,0.5h3.2c0.9,0,1.8-0.2,2.7-0.5c0.8-0.4,1.6-0.8,2.2-1.5c0.6-0.6,1.1-1.3,1.5-2.2c0.4-0.8,0.5-1.7,0.5-2.7
		V26.6z"/>
	<path class="st0" d="M143.9,49.2c-0.6,1.4-1.4,2.6-2.5,3.7c-1.1,1.1-2.3,1.9-3.7,2.5c-1.4,0.6-2.9,0.9-4.5,0.9H130
		c-1.6,0-3.1-0.3-4.5-0.9c-1.4-0.6-2.6-1.4-3.7-2.5c-1.1-1.1-1.9-2.3-2.5-3.7c-0.6-1.4-0.9-2.9-0.9-4.5V26.9c0-1.6,0.3-3.1,0.9-4.5
		c0.6-1.4,1.4-2.6,2.5-3.7c1.1-1.1,2.3-1.9,3.7-2.5c1.4-0.6,2.9-0.9,4.5-0.9h3.2c1.6,0,3.1,0.3,4.5,0.9c1.4,0.6,2.6,1.4,3.7,2.5
		c1.1,1.1,1.9,2.3,2.5,3.7c0.6,1.4,0.9,2.9,0.9,4.5v17.8C144.8,46.2,144.5,47.7,143.9,49.2z M140.1,26.6c0-0.9-0.2-1.8-0.5-2.7
		c-0.4-0.8-0.8-1.6-1.5-2.2c-0.6-0.6-1.3-1.1-2.2-1.5c-0.8-0.4-1.7-0.5-2.7-0.5H130c-0.9,0-1.8,0.2-2.7,0.5
		c-0.8,0.4-1.6,0.8-2.2,1.5c-0.6,0.6-1.1,1.3-1.5,2.2c-0.4,0.8-0.5,1.7-0.5,2.7v18.3c0,0.9,0.2,1.8,0.5,2.7c0.4,0.8,0.8,1.6,1.5,2.2
		c0.6,0.6,1.3,1.1,2.2,1.5c0.8,0.4,1.7,0.5,2.7,0.5h3.2c0.9,0,1.8-0.2,2.7-0.5c0.8-0.4,1.6-0.8,2.2-1.5c0.6-0.6,1.1-1.3,1.5-2.2
		c0.4-0.8,0.5-1.7,0.5-2.7V26.6z"/>
	<path class="st0" d="M168.6,55.5c-1.4,0-2.8-0.3-4.1-0.8c-1.3-0.5-2.4-1.3-3.3-2.2c-0.9-0.9-1.7-2.1-2.2-3.3
		c-0.6-1.3-0.8-2.6-0.8-4V20.5h-7.1V16h7.1V6.6l4.7-0.8V16h10v4.5h-10v24.8c0,0.8,0.1,1.5,0.4,2.2c0.3,0.7,0.7,1.3,1.2,1.8
		c0.5,0.5,1.1,0.9,1.8,1.2c0.7,0.3,1.4,0.4,2.2,0.4h4.3v4.5H168.6z"/>
	<path class="st0" d="M183.2,55.5V0.3h4.7v55.2H183.2z"/>
	<path class="st0" d="M200.2,6.6V0.3h5.5v6.3H200.2z M200.6,55.5V16h4.7v39.4H200.6z"/>
	<path class="st0" d="M243.5,45.5c0,1.6-0.3,3-1,4.4c-0.6,1.3-1.5,2.5-2.6,3.4c-1.1,0.9-2.4,1.7-3.8,2.2c-1.5,0.5-3,0.8-4.6,0.8
		h-3.2c-1.6,0-3.1-0.3-4.6-0.9c-1.5-0.6-2.7-1.4-3.8-2.5c-1.1-1.1-2-2.3-2.6-3.7c-0.7-1.4-1-2.9-1-4.5v-1.6l4.7-0.8v2.6
		c0,0.9,0.2,1.8,0.6,2.7c0.4,0.8,0.9,1.6,1.6,2.2c0.7,0.6,1.4,1.1,2.3,1.5c0.9,0.4,1.8,0.5,2.7,0.5h3.2c0.9,0,1.9-0.1,2.7-0.4
		c0.9-0.3,1.6-0.7,2.3-1.2c0.7-0.5,1.2-1.2,1.6-1.9c0.4-0.7,0.6-1.6,0.6-2.5c0-1.4-0.3-2.6-0.9-3.5c-0.6-0.9-1.4-1.6-2.4-2.3
		c-1-0.6-2.2-1.1-3.5-1.5c-1.3-0.4-2.6-0.8-4-1.2c-1.4-0.4-2.7-0.9-4-1.4c-1.3-0.5-2.5-1.2-3.5-2c-1-0.8-1.8-1.9-2.4-3.1
		c-0.6-1.3-0.9-2.8-0.9-4.7c0-1.6,0.3-3,0.9-4.4c0.6-1.3,1.5-2.5,2.5-3.4c1.1-0.9,2.3-1.7,3.7-2.2c1.4-0.5,2.9-0.8,4.5-0.8h2.8
		c1.6,0,3.1,0.3,4.5,0.9c1.4,0.6,2.6,1.4,3.7,2.5c1.1,1.1,1.9,2.3,2.5,3.7c0.6,1.4,0.9,2.9,0.9,4.5V27l-4.7,0.8v-1.2
		c0-0.9-0.2-1.8-0.5-2.7c-0.4-0.8-0.8-1.6-1.5-2.2c-0.6-0.6-1.3-1.1-2.2-1.5c-0.8-0.4-1.7-0.5-2.7-0.5h-2.8c-0.9,0-1.8,0.1-2.7,0.4
		c-0.8,0.3-1.6,0.7-2.2,1.2c-0.6,0.5-1.1,1.2-1.5,1.9c-0.4,0.7-0.5,1.6-0.5,2.5c0,1.4,0.3,2.5,0.9,3.3c0.6,0.9,1.4,1.6,2.4,2.2
		c1,0.6,2.2,1.1,3.5,1.5c1.3,0.4,2.6,0.8,4,1.2c1.3,0.4,2.7,0.9,4,1.4c1.3,0.5,2.5,1.2,3.5,2.1c1,0.8,1.8,1.9,2.4,3.2
		C243.2,42,243.5,43.6,243.5,45.5z"/>
	<path class="st0" d="M266.9,55.5c-1.4,0-2.8-0.3-4.1-0.8c-1.3-0.5-2.4-1.3-3.3-2.2c-0.9-0.9-1.7-2.1-2.2-3.3
		c-0.6-1.3-0.8-2.6-0.8-4V20.5h-7.1V16h7.1V6.6l4.7-0.8V16h10v4.5h-10v24.8c0,0.8,0.1,1.5,0.4,2.2c0.3,0.7,0.7,1.3,1.2,1.8
		c0.5,0.5,1.1,0.9,1.8,1.2c0.7,0.3,1.4,0.4,2.2,0.4h4.3v4.5H266.9z"/>
</g>
<g>
	<path class="st1" d="M13.7,3.4v5c0,1.1,1.1,1.9,2.1,1.6C22.7,8.1,27.3,8,28,8c0.1,0,0.1,0,0.1,0l0,0l0,0c0.1,0,4.9-0.1,12.3,2.1
		c1.1,0.3,2.1-0.5,2.1-1.6V3.4"/>
</g>
</svg>
