<?xml version="1.0" encoding="utf-8"?>
<!-- Generator: Adobe Illustrator 19.2.1, SVG Export Plug-In . SVG Version: 6.00 Build 0)  -->
<!DOCTYPE svg PUBLIC "-//W3C//DTD SVG 1.1//EN" "http://www.w3.org/Graphics/SVG/1.1/DTD/svg11.dtd">
<svg version="1.1" id="Layer_1" xmlns="http://www.w3.org/2000/svg" xmlns:xlink="http://www.w3.org/1999/xlink" x="0px" y="0px"
	 viewBox="0 0 1271 86.7" style="enable-background:new 0 0 1271 86.7;" xml:space="preserve">
<style type="text/css">
	.st0{fill:none;stroke:#FFFFFF;stroke-miterlimit:10;}
	.st1{fill:#FFFFFF;}
</style>
<path class="st0" d="M668.5,9.4c-1.2-3.6-5-5.5-8.5-4.3c-3.6,1.2-5.5,5-4.3,8.5l17.5,53.8c1.2,3.3,4.8,5.2,8.2,4.2
	c3.6-1,5.8-4.8,4.6-8.4C686,63.1,668.5,9.4,668.5,9.4z"/>
<path class="st0" d="M641.4,18.2c-1.2-3.6-5-5.5-8.5-4.3s-5.5,5-4.3,8.5l17.5,53.8c1.2,3.3,4.8,5.2,8.2,4.2c3.6-1,5.8-4.8,4.6-8.4
	C658.9,71.9,641.4,18.2,641.4,18.2z"/>
<path class="st0" d="M690.6,54c3.6-1.2,5.5-5,4.3-8.5c-1.2-3.6-5-5.5-8.5-4.3l-53.9,17.4c-3.3,1.2-5.2,4.8-4.2,8.2
	c1,3.6,4.8,5.8,8.4,4.6C636.8,71.4,690.6,54,690.6,54z"/>
<path class="st0" d="M681.7,26.9c3.6-1.2,5.5-5,4.3-8.5s-5-5.5-8.5-4.3l-53.8,17.4c-3.3,1.2-5.2,4.8-4.2,8.2c1,3.6,4.8,5.8,8.4,4.6
	C628,44.3,681.7,26.9,681.7,26.9z"/>
<g id="Facebook_Messenger_1_">
	<g>
		<path class="st0" d="M521.8,4.8c-20.8,0-37.7,15.7-37.7,35.1c0,11.1,5.5,20.9,14.1,27.4v13.4l12.8-7.1c3.4,1,7.1,1.5,10.8,1.5
			c20.8,0,37.7-15.7,37.7-35.1S542.6,4.8,521.8,4.8z M525.6,52.1L516,41.8l-18.8,10.3l20.6-22l9.9,10.3l18.5-10.3L525.6,52.1z"/>
	</g>
</g>
<path class="st0" d="M813.4,80.8h-39.6c-10.1,0-18.3-8.2-18.3-18.3V22.9c0-10.1,8.2-18.3,18.3-18.3h39.6c10.1,0,18.3,8.2,18.3,18.3
	v39.6C831.7,72.6,823.5,80.8,813.4,80.8z"/>
<g id="Lae9Ql.tif">
	<g>
		<path class="st0" d="M815.5,27.8c-14.9,0-29.6,0-44.5,0c7.5,6,14.8,12,22.2,17.9C800.7,39.7,808,33.8,815.5,27.8z M771.1,57.6
			c14.9,0,29.6,0,44.3,0c0-0.1,0-0.1,0-0.1c-5.7-4.6-11.3-9.1-17-13.7c-0.3-0.3-0.5-0.1-0.8,0.1c-1.2,1-2.4,1.9-3.6,2.9
			c-0.5,0.5-0.9,0.5-1.5,0c-1.1-1-2.3-1.9-3.5-2.8c-0.2-0.1-0.4-0.3-0.6-0.4C782.7,48.3,777,52.9,771.1,57.6z M787.5,42.7
			c-5.9-4.8-11.8-9.5-17.8-14.3c0,9.6,0,19,0,28.6C775.7,52.2,781.5,47.5,787.5,42.7z M816.8,28.4c-6,4.8-11.8,9.5-17.7,14.2
			c5.9,4.8,11.8,9.5,17.7,14.2C816.8,47.4,816.8,38,816.8,28.4z"/>
	</g>
</g>
<g>
	<path class="st0" d="M423.8,8.4c-0.7-2.6-3-4.4-5.8-4.4c-9.3,0-18.6,0-27.9,0c-3,0-5.5,2-6,4.7c0,0.1-0.1,0.2-0.2,0.3
		c0,21.4,0,42.7,0,64.1c0.1,0.1,0.1,0.2,0.2,0.3c0.6,2.5,2.2,4,4.8,4.6c0.1,0,0.2,0.1,0.3,0.2c9.9,0,19.7,0,29.6,0
		c0.2-0.1,0.3-0.1,0.5-0.2c2.4-0.6,3.9-2,4.6-4.4c0-0.2,0.1-0.3,0.2-0.5c0-21.4,0-42.7,0-64.1C423.9,8.8,423.9,8.6,423.8,8.4z
		 M401.1,10.7c0.8,0,1.6,0,2.4,0c1.1,0,2.1,0,3.2,0c0.6,0,0.9,0.2,0.9,0.7c0,0.4-0.3,0.8-0.9,0.8c-0.9,0-1.8,0-2.8,0l0,0
		c-0.8,0-1.6,0-2.3,0c-0.2,0-0.4,0-0.6,0c-0.4-0.1-0.7-0.3-0.7-0.7C400.4,11,400.7,10.7,401.1,10.7z M398.4,10.7
		c0.4,0,0.7,0.3,0.7,0.7s-0.3,0.7-0.7,0.7c-0.4,0-0.7-0.3-0.7-0.7C397.7,11,398,10.7,398.4,10.7z M403.8,74.4c-1.6,0-3-1.3-3-2.9
		s1.3-3,3-2.9c1.6,0,2.9,1.3,2.9,2.9S405.4,74.4,403.8,74.4z M420.2,66c-10.8,0-21.5,0-32.4,0c0-16.4,0-32.8,0-49.3
		c10.8,0,21.5,0,32.4,0C420.2,33.2,420.2,49.6,420.2,66z"/>
	<path class="st0" d="M398.9,44.5c0.4,0.6,0.8,1.2,1.3,1.8c0.2,0.2,0.4,0.4,0.6,0.5s0.4,0.2,0.6,0.3h0.1c0.1,0,0.2,0,0.2,0
		c0.1,0,0.1,0,0.2,0c0.2,0,0.5-0.1,0.7-0.2c0.2-0.1,0.4-0.2,0.6-0.3c0.4-0.1,0.8-0.2,1.2-0.1c0.4,0,0.7,0.1,1,0.3
		c0.2,0.1,0.4,0.2,0.6,0.2c0.3,0.1,0.6,0.1,0.9,0.1s0.6-0.2,0.8-0.3c0.2-0.2,0.5-0.4,0.7-0.6c0.2-0.3,0.4-0.5,0.6-0.8
		c0.4-0.6,0.7-1.2,1-1.9c0.1-0.2,0.1-0.3,0.2-0.5l0,0l0,0c-0.2-0.1-0.3-0.1-0.4-0.2c-0.6-0.4-1-0.9-1.3-1.5c-0.2-0.3-0.2-0.7-0.3-1
		c-0.1-0.5,0-1,0.1-1.5c0.2-0.5,0.5-1,0.8-1.4c0.2-0.2,0.4-0.4,0.6-0.5l0,0c0,0,0,0,0-0.1c-0.5-0.7-1.1-1.1-1.9-1.4
		c-0.3-0.1-0.6-0.1-0.9-0.1c-0.5,0-1,0.1-1.5,0.2c-0.3,0.1-0.6,0.2-0.9,0.3c-0.1,0-0.2,0.1-0.4,0.1c-0.2,0.1-0.4,0.1-0.7,0
		c-0.2-0.1-0.4-0.1-0.6-0.2c-0.3-0.1-0.6-0.2-0.9-0.3s-0.6-0.1-0.9-0.1c-0.7,0-1.4,0.3-1.9,0.7c-0.7,0.5-1.1,1.1-1.4,1.8
		c-0.2,0.4-0.3,0.8-0.3,1.2c0,0.2,0,0.4-0.1,0.6v0.1c0,0.2,0,0.4,0,0.5v0.1C397.8,41.9,398.2,43.2,398.9,44.5z"/>
	<path class="st0" d="M404,35.1c0.2,0,0.3,0,0.5,0c0.3-0.1,0.6-0.2,0.9-0.3c0.6-0.3,1-0.8,1.3-1.4c0.3-0.5,0.4-1,0.4-1.6
		c0-0.1,0-0.2,0-0.2H407c-0.2,0-0.3,0-0.5,0.1c-1.1,0.3-1.9,1-2.3,2C404,34.1,403.9,34.6,404,35.1C404,35,404,35,404,35.1L404,35.1z
		"/>
</g>
<path class="st0" d="M186.6,8.6c-0.7-2.6-3-4.4-5.8-4.4c-9.3,0-18.6,0-27.9,0c-3,0-5.5,2-6,4.7c0,0.1-0.1,0.2-0.2,0.3
	c0,21.4,0,42.7,0,64.1c0.1,0.1,0.1,0.2,0.2,0.3c0.6,2.5,2.2,4,4.8,4.6c0.1,0,0.2,0.1,0.3,0.2c9.9,0,19.7,0,29.6,0
	c0.2-0.1,0.3-0.1,0.5-0.2c2.4-0.6,3.9-2,4.6-4.4c0-0.2,0.1-0.3,0.2-0.5c0-21.4,0-42.7,0-64.1C186.7,9,186.7,8.8,186.6,8.6z
	 M163.9,10.9c0.8,0,1.6,0,2.4,0c1.1,0,2.1,0,3.2,0c0.6,0,0.9,0.2,0.9,0.7c0,0.4-0.3,0.8-0.9,0.8c-0.9,0-1.8,0-2.8,0l0,0
	c-0.8,0-1.6,0-2.3,0c-0.2,0-0.4,0-0.6,0c-0.4-0.1-0.7-0.3-0.7-0.7C163.2,11.2,163.5,10.9,163.9,10.9z M183,66.2
	c-10.8,0-21.5,0-32.4,0c0-16.4,0-32.8,0-49.3c10.8,0,21.5,0,32.4,0C183,33.4,183,49.8,183,66.2z"/>
<g>
	<path class="st0" d="M1034.6,31.5c0-2.2,1.7-3.9,3.9-3.9h56.1v-1.4c0-2.2-1.7-3.9-3.9-3.9h-58.3c-2.2,0-3.9,1.7-3.9,3.9v24.3
		c0,2.2,1.7,3.9,3.9,3.9h2.2L1034.6,31.5L1034.6,31.5z"/>
</g>
<path class="st0" d="M1099.4,30.3h-58.3c-2.2,0-3.9,1.7-3.9,3.9v24.3c0,2.2,1.7,3.9,3.9,3.9h2.4v5.7c0,1.2,1.5,1.8,2.3,1l6.7-6.7h47
	c2.2,0,3.9-1.7,3.9-3.9V34.2C1103.3,32,1101.6,30.3,1099.4,30.3z"/>
<path class="st1" d="M1049.1,42.9c0.4,0.3,1.4,0.8,3.1,1.6c1.6,0.7,2.7,1.5,3.4,2.3c0.6,0.8,0.9,1.9,0.9,3.1c0,1.2-0.3,2.2-0.9,3.1
	c-0.6,0.9-1.4,1.6-2.6,2.1c-1.1,0.5-2.4,0.7-3.9,0.7c-1.2,0-2.3-0.1-3.1-0.3s-1.7-0.5-2.6-0.9v-4.5c1,0.5,2,0.9,3,1.2s2,0.4,2.9,0.4
	c0.8,0,1.3-0.1,1.7-0.4c0.4-0.3,0.5-0.6,0.5-1c0-0.3-0.1-0.5-0.2-0.7s-0.4-0.4-0.7-0.6c-0.3-0.2-1.1-0.6-2.5-1.2
	c-1.2-0.6-2.1-1.1-2.7-1.6s-1.1-1.1-1.4-1.8s-0.4-1.5-0.4-2.4c0-1.7,0.6-3.1,1.9-4c1.3-1,3-1.4,5.2-1.4c1.9,0,3.9,0.4,5.9,1.3
	l-1.6,3.9c-1.8-0.8-3.3-1.2-4.5-1.2c-0.7,0-1.1,0.1-1.4,0.3s-0.4,0.5-0.4,0.9C1048.5,42.3,1048.7,42.6,1049.1,42.9z"/>
<path class="st1" d="M1080.8,55.7h-4.7v-8.2c0-0.4,0-0.9,0-1.4s0.1-1.8,0.2-3.8h-0.1l-3.8,13.5h-4.8l-3.8-13.5h-0.1
	c0.2,2.3,0.3,4.1,0.3,5.4v8.1h-4.5V37h6.7l3.9,13.3h0.1L1074,37h6.8V55.7z"/>
<path class="st1" d="M1089.6,42.9c0.4,0.3,1.4,0.8,3.1,1.6c1.6,0.7,2.7,1.5,3.4,2.3c0.6,0.8,0.9,1.9,0.9,3.1c0,1.2-0.3,2.2-0.9,3.1
	c-0.6,0.9-1.4,1.6-2.6,2.1c-1.1,0.5-2.4,0.7-3.9,0.7c-1.2,0-2.3-0.1-3.1-0.3s-1.7-0.5-2.6-0.9v-4.5c1,0.5,2,0.9,3,1.2s2,0.4,2.9,0.4
	c0.8,0,1.3-0.1,1.7-0.4c0.4-0.3,0.5-0.6,0.5-1c0-0.3-0.1-0.5-0.2-0.7s-0.4-0.4-0.7-0.6c-0.3-0.2-1.1-0.6-2.5-1.2
	c-1.2-0.6-2.1-1.1-2.7-1.6s-1.1-1.1-1.4-1.8s-0.4-1.5-0.4-2.4c0-1.7,0.6-3.1,1.9-4c1.3-1,3-1.4,5.2-1.4c1.9,0,3.9,0.4,5.9,1.3
	l-1.6,3.9c-1.8-0.8-3.3-1.2-4.5-1.2c-0.7,0-1.1,0.1-1.4,0.3s-0.4,0.5-0.4,0.9C1089.1,42.3,1089.3,42.6,1089.6,42.9z"/>
<circle class="st0" cx="285.7" cy="42.6" r="38.1"/>
<path class="st1" d="M297,33.8c-0.3-0.4-0.9-0.5-1.3-0.3l-22.9,13.8l4,11.3c0.1,0.2,0.1,0.4,0.2,0.6c0.2,0.7,0.6,1.5,1.7,1.5
	c0-0.3-0.3-0.9-0.2-1.2c-0.3,0-0.3-0.1-0.4-0.6c-0.1-0.2-0.1-0.4-0.2-0.7L274,47.8l22.2-13.4l-17.7,15.9l3.2,2.4
	c0.2-0.3,0.4-0.6,0.6-0.8l-2.2-1.7l16.8-15.1C297.2,34.8,297.3,34.2,297,33.8z"/>
<path class="st1" d="M278.6,60.7c-0.2,0-0.4,0-0.5-0.1c-0.3-0.1-0.7-0.5-0.6-1.4l0.9-8.8l7.5,4.3l-5,4.8
	C280.5,60,279.5,60.7,278.6,60.7z M278.6,59.3c0,0.3,0,0.3,0,0.3c0.2,0.1,1.1-0.2,1.7-0.9l4.2-4l-4.9-3.5L278.6,59.3z"/>
<path class="st0" d="M279.3,50.3l15.3,11.3c1.8,1,3,0.5,3.5-1.6l6.2-29.4c0.6-2.6-1-3.7-2.7-3l-36.5,14.2c-2.5,1-2.5,2.4-0.5,3
	l9.4,2.9L295.8,34c1-0.6,2-0.3,1.2,0.4L279.3,50.3z"/>
<g id="ZcFnwI.tif">
	<g>
		<path class="st0" d="M46.5,3c1.8,0,3.6,0,5.4,0c0.8,0.1,1.7,0.2,2.5,0.3c7.3,1.1,13.9,4,19.5,8.8C84.4,21.2,89.1,35.4,86,49
			c-2.1,9.3-7.1,16.8-14.8,22.4c-5.7,4.1-12.1,6.5-19.1,7c-3.6,0.3-7.2,0.1-10.7-0.7c-7.2-1.5-13.4-4.9-18.7-10
			c-6-5.9-9.6-13-10.9-21.3c-0.2-1-0.3-2-0.4-3c0-1.8,0-3.6,0-5.4c0-0.2,0.1-0.4,0.1-0.6c0.2-1.5,0.3-3,0.7-4.5
			c1.5-7.2,4.9-13.5,10.1-18.8c5.9-5.9,13-9.5,21.2-10.8C44.5,3.2,45.5,3.1,46.5,3z M74.9,60.2L74.9,60.2c-1,0.6-1.9,1.1-2.5,2.2
			c-0.3,0.5-0.9,0.9-1.4,1.4c-0.3,0.3-0.8,0.5-1.1,0.8c-1,1-2.2,1.9-3.5,2.5c-0.6,0.3-1.4,0.3-2.1,0.6c-0.3,0.1-0.7,0.3-0.9-0.1
			c-0.1-0.2,0.1-0.6,0.2-0.9c0.3-0.7,0.8-1.3,1.1-1.9c0.4-1.1,0.7-2.3,1-3.4c0.1-0.2,0.1-0.4,0.1-0.6c-0.2-0.8,0.1-1.5,0.6-2.1
			c0.4-0.5,0.9-1,1-1.5c0.4-1.4,0.8-2.9,0-4.3c-0.5-0.9-0.5-1.8,0-2.7c0.4-0.7,0.1-1.2-0.8-1.1c-0.5,0-0.8-0.1-0.9-0.6
			c0-0.1-0.1-0.3-0.2-0.4c-0.3,0-0.6,0.1-1,0.1c-0.5,0.1-1,0.3-1.6,0.4c-0.8,0.1-1.6-0.1-2.4,0.2c-1.1,0.4-1.9-0.1-2.8-0.6
			c-0.9-0.6-1.7-1.3-2.3-2.2c-0.6-0.8-1.5-1.5-1.4-2.7c-0.5-0.5-0.3-1,0-1.5c0.6-0.9,0.5-1.7,0.1-2.6c-0.2-0.4-0.1-0.8,0.1-1.1
			c0.5-1,1.1-2,1.6-3c0.2-0.5,0.5-0.8,1-1.1c0.6-0.3,1.3-0.6,1.4-1.4c0.1-0.6,0.4-1,0.9-1.4c0.4-0.3,0.7-0.7,1.1-1
			c0-0.1,0-0.1,0-0.2c-0.9,0.2-1.2-0.3-1.5-0.9c0.1-0.5,0.1-0.8,0.1-1.2c0.1-0.4,0.1-0.9,0-1.3c-0.1-0.9,0.4-1.4,1.4-1.3
			c0.5,0.1,0.9,0.1,1.4,0.2c0-0.7-0.1-1-0.6-1c-0.6-0.1-0.8-0.4-0.8-0.9c0-0.1,0-0.2-0.1-0.3c-0.6-0.2-0.5-0.7-0.3-1.2
			c-0.3,0.1-0.5,0.2-0.6,0.2c-1,0.3-1.2,0.2-1.2-0.8v-0.1c-0.2-1-0.2-1,0.5-1.4c0.1-0.1,0.3-0.1,0.4-0.2c0.1-0.3,0.1-0.6,0.2-1
			c0.2-0.6,0.7-0.8,1.1-0.4c0.4,0.3,0.9,0.5,0.9,1.2c0,0.1,0.1,0.2,0.2,0.3c0.5,0.5,1,0.9,1.5,1.4c0.4-0.3,0.7-0.6,1-0.8
			c-0.1-0.4-0.2-0.7-0.3-0.9c-0.3-0.2-0.6-0.3-0.8-0.5c-0.4-0.4-0.7-0.9-0.9-1.4c-0.1-0.2-0.1-0.5,0-0.6c0.6-0.6,0.6-1.3,0.7-2.1
			c0.1-1.1,1.2-1.8,2.2-1.5c0.8,0.2,1.7,0.5,2.5,0.7c0.1,0,0.3-0.1,0.6-0.1c-0.5-0.4-0.8-0.6-1.2-0.9c-0.3-0.3-0.6-0.7-1-0.9
			c-4-2.5-8.5-3.9-13.4-4.4c-3.1-0.3-6.2-0.1-9.3,0.4C39.3,9,36,10.2,32.8,12c-0.1,0-0.1,0.1-0.2,0.2c0.2,0.1,0.4,0.2,0.5,0.2
			c0.8-0.7,1.6-1.1,2.5-1.3c0.2,0,0.4-0.1,0.6-0.2c0.6-0.4,1.2-0.5,1.8-0.5c0.3,0,0.6-0.1,0.9,0c0.4,0,0.8,0,1.2,0.1
			c0.3-0.1,0.6-0.2,1-0.3c0,0.3,0.1,0.6,0.1,0.8c0.3-0.3,0.7-0.7,1.1-1c0.6-0.4,0.6-0.4,1.1,0.1c0.2-0.2,0.4-0.5,0.6-0.7
			c0.5-0.3,0.9-0.6,1.4-0.9c0.2-0.1,0.6-0.1,0.8,0c0.4,0.2,0.9,0.5,1.2,0.9c0.4,0.4,0.7,0.5,1.1,0.2c0.4-0.3,0.9-0.5,1.5-0.5
			S51.2,9,51.9,9c0.6,0,1.2,0,1.6,0.4c0.3,0.4,0.7,0.5,1.2,0.7c0.3,0.1,0.6,0.3,0.7,0.5c0.1,0.4-0.3,0.5-0.6,0.6c0,0,0,0.1-0.1,0.1
			c0.3,0.9,0.1,1.8-0.2,2.6c-0.1,0.2-0.2,0.4-0.3,0.5c-0.8,0.3-1.5,0.6-2.3,0.8c-0.4,0.1-0.8,0.2-1.1,0.3c-0.4,0.2-0.8,0.4-1.3,0.5
			c-0.6,0.2-1.2,0.5-1.6,1c-0.2,0.3-0.5,0.6-0.8,0.8c-0.3,0.2-0.8,0.5-1.1,0.4c-0.4-0.1-0.9-0.5-1.2-0.9c-0.5-0.9-0.1-1.8,0.1-2.6
			c0-0.2,0.2-0.3,0.4-0.4c0.2-0.2,0.4-0.3,0.7-0.4c0-0.5,0-1,0-1.5c-0.5-0.2-1.4,0.2-1.3-0.9c-0.8,0.1-1.8,0.6-2.2,1
			c0.1,0.1,0.1,0.2,0.2,0.4c0.1,0.1,0.2,0.2,0.2,0.4c0.1,0.2,0.1,0.4,0.1,0.5c-0.2,0.3,0,0.5,0.1,0.8c0.3,0.5,0.3,0.6-0.2,0.9
			c-0.7,0.4-1.5,0.5-2.1,1.2c-0.1,0.1-0.2,0-0.3,0.1c-0.4,0-0.5,0.3-0.5,0.6c0,0.9-0.1,1.9-0.1,2.7c0.3,0.3,0.6,0.5,0.6,0.7
			c0,0.5-0.2,1-0.4,1.6c0,0.2,0,0.4,0,0.6c0.1,0.7,0,1-0.7,1.2c-0.5,0.1-1.1,0.2-1.6-0.1c-0.3-0.2-0.7-0.2-1.1-0.4
			c0.1,0.6,0,0.9-0.4,1.1c-0.8,0.3-1.6,0.6-2.4,1c-0.5,0.2-0.9,0.3-1.2-0.3c-0.4,0.1-0.7,0.2-1,0.4c-0.2,0.1-0.4,0.3-0.4,0.4
			c-0.2,0.6-0.6,0.8-1.2,0.8c-0.5,0-0.9,0.2-1.2,0.6c-0.4,0.5-0.9,0.8-1.4,1.2c-0.1,0.1-0.2,0.2-0.2,0.3c-0.1,0.6-0.5,0.9-1,1.2
			c-0.5,0.3-1,0.7-1.5,1c-0.2,0.2-0.4,0.4-0.6,0.6c-0.6,0.8-0.5,1.8-0.8,2.7c0.2,0.1,0.3,0.2,0.5,0.3c0.3,0.3,0.3,1,0,1.2
			s-0.7,0.1-1-0.2c-0.1-0.1-0.3-0.2-0.4-0.2c-0.6-0.1-0.7-0.2-0.7-0.8s0-1.2,0-2c-0.3,0-0.6,0-0.8,0.1c-0.6,0.5-0.6,0.5-1.1,0
			c-0.4-0.3-0.6-0.3-0.9,0.1c-1,1.3-1.5,2.7-1.7,4.3c0,0.5,0,0.9,0.6,1.2c0.1-0.2,0.2-0.3,0.2-0.4c0.1-0.8,0.6-1.1,1.3-1.1
			c0.1,0,0.3,0,0.4,0c0.2-0.1,0.4-0.2,0.6-0.4c0.5-0.7,1.2-0.9,2-0.4c0.6,0.4,1.2,0.8,1.7,1.2c0.4-0.2,0.9-0.4,0.9-0.4
			c0.3,0.4,0.4,0.8,0.7,1.3c0.6,0.2,1.5,0.5,2.3,0.8c0.1,0,0.2,0,0.3,0c0.7,0,1.4,0.1,1.9,0.6c0.4,0.3,0.8,0.8,0.6,1.3
			c-0.1,0.4-0.1,0.7-0.1,1.1c0.1,0.6,0,1.2,0.1,1.7c0,0.1,0.2,0.3,0.3,0.4c0.2,0.1,0.4,0.1,0.6,0.1c0.4,0.1,0.5,0.3,0.3,0.6
			c-0.2,0.4-0.3,0.8-0.6,1.3c0.4,0.2,0.8,0.7,1.2,0.7c1.1-0.1,2,0.6,2.7,1.1c0.8,0.5,1.3,1.4,1.9,2.1c0.7,0.8,1.5,1.4,2.5,1.5
			c1.5,0.1,2.7,0.6,4,1.3c0.3,0.2,0.7,0.4,0.8,0.7c0.2,0.5,0.4,1.2,0.2,1.7c-0.3,0.8-0.9,1.5-1.3,2.3c-0.1,0.2-0.3,0.5-0.2,0.6
			c0.4,1.2,0.2,2.4,0,3.5c-0.1,0.4-0.2,0.7-0.6,0.9c-0.6,0.3-1.1,0.6-1.6,0.9c0.1,0.2,0.1,0.4,0.2,0.6c0.4,0.8,0.3,1.6,0,2.4
			c-0.1,0.2-0.1,0.4-0.2,0.6c-0.1,0.3-0.2,0.5-0.1,0.8c0.1,0.3,0.1,0.7-0.2,1c-0.3,0.2-0.2,0.5,0,0.7c0.7,0.7,1.4,1.5,2.2,2.2
			c0.2,0.2,0.5,0.3,0.7,0.4c0.2-0.5,0.5-0.7,1-0.4c0.2,0.1,0.4,0.3,0.4,0.4c0,0.3-0.1,0.5-0.2,0.8c0.1,0,0.2,0,0.3,0.1
			c3.6,0.5,7.1,0.3,10.7-0.4c6.2-1.3,11.6-4.1,16.2-8.5c0.4-0.4,0.8-0.7,0.8-1.3c0-0.2,0.1-0.4,0.3-0.5c0.4-0.6,0.9-1.1,1.4-1.7
			C74.5,60.8,74.7,60.5,74.9,60.2z M16.3,41.7C16.5,57,28,69.7,41,72.6c-0.9-0.6-1.8-1.2-2.7-1.9c-0.8-0.6-1.7-1.3-2.4-2
			c-2-1.9-3.7-4-5.1-6.4c-0.6-0.9-1.3-1.7-2.3-2.1c-0.7-0.3-1.2-0.7-1.7-1.3c-1.2-1.3-2.1-3-3.5-4.1l-0.1-0.1
			c-0.7-1.4-1.3-2.8-0.8-4.4c0.4-1.2-0.1-2.2-0.3-3.4c-0.6,0.4-1,0.2-1.4-0.3c-0.2-0.3-0.6-0.4-0.9-0.7c-0.2-0.2-0.4-0.4-0.5-0.6
			c-0.2-0.5-0.3-0.9-0.5-1.4c-0.1-0.2-0.1-0.5-0.3-0.5c-0.7-0.4-1.2-1.1-1.4-1.8C16.8,41.6,16.6,41.6,16.3,41.7z M22.7,45
			c0.1-0.8,0.8-1.1,1.5-1.5c0.4-0.2,0.8,0,1.1-0.1c0.5-0.2,0.8,0,1,0.4c0.3,0.5,0.8,0.6,1.3,0.7c0.6,0.1,1.3,0,2,0
			c0-0.3,0-0.7,0-1.1c-0.1-0.6-0.2-1.1-0.3-1.7c-0.1-0.9-0.3-1.1-1.1-1.1c-1.4-0.1-2.8-0.2-4.2-0.3c-0.2,0.4-0.6,0.7-1.1,0.6
			c-0.5-0.1-1-0.4-1-1c-1,0-1.1-1.1-1.7-1.5c-0.2,0.5-0.4,1-0.6,1.6c-0.1,0.4-0.1,0.6,0.4,0.7c0.8,0.3,1.2,0.9,1.2,1.7
			c0,0.6-0.1,1.2-0.1,1.9c0,0.6,0.2,0.7,0.7,0.7C21.9,44.9,22.2,44.9,22.7,45z M69,31v0.1c1,0.4,1.9,0.7,2.9,1.1
			c0.5-0.8,0.9-0.9,1.9-0.6c0.5,0.2,1,0.3,1.5,0.5c0.1,0,0.2,0,0.3,0c0.3-0.4,0.8-0.2,1.2-0.2c0-0.4,0-0.7,0-1.1
			c-0.7,0-0.8-0.1-1.4-0.8c-0.2,0.1-0.7,0.1-0.7,0.2c-0.1,0.5-0.4,0.5-0.8,0.4c-0.3-0.1-0.7-0.1-0.9-0.4c-0.6-0.6-1.2-1.2-1.8-1.8
			c-0.1-0.1-0.3-0.2-0.5-0.4c-0.2,0.7-0.5,1.4-0.7,2C69.8,30.9,69.7,31,69,31z M63,29.7c1.7-0.7,3.5-0.4,5.1-0.7
			c0-0.2,0-0.5,0.1-0.7c0.2-0.2,0.5-0.2,0.9-0.3c-0.6-0.3-1-0.6-1.6-0.9c0,0.3,0.1,0.3,0.1,0.4c0.1,0.6,0,0.8-0.5,0.9
			s-0.6-0.2-0.7-0.6s-0.2-0.9-0.3-1.3c-0.3,0-0.5,0.1-0.7,0.1s-0.4,0-0.5,0c-0.2,0.3-0.2,0.6-0.4,0.8c-0.2,0.2-0.5,0.3-0.9,0.4
			C64.1,28.6,63.6,29.1,63,29.7z M35.9,16.7c-0.8-0.9-1.5-0.5-2.2-0.2c-0.2,0.1-0.5,0.2-0.7,0.3c-0.4,0.2-0.8,0.4-1.1,0.7
			c-0.1,0.1-0.3,0.4-0.3,0.5c0.1,0.5,0.3,0.9,0.5,1.4c0.3-0.1,0.5-0.2,0.7-0.3c0.7-0.2,1.3-0.5,1.6-1.2c0.1-0.2,0.3-0.3,0.5-0.4
			C35.2,17.2,35.6,16.9,35.9,16.7z M77.7,57.1c1.2-2.2,2.2-4.4,2.8-6.8c-1.5,2-2.9,4-3.4,6.5C77.3,56.9,77.5,57,77.7,57.1z
			 M73.9,25.3c-0.2,0.4-0.3,0.7,0,1c0.3,0.4,0.6,0.1,0.9,0c0.5-0.2,1-0.3,1.4,0c0-0.1,0-0.1,0.1-0.2c-0.4-0.2-0.8-0.5-1.2-0.7
			C74.6,25.9,74.2,25.5,73.9,25.3z M67.9,19.7c-0.1-1-0.3-1.3-1.1-1.3c-0.1,0.5-0.1,1-0.2,1.6C67.1,19.9,67.5,19.8,67.9,19.7z
			 M36.8,23.2c0-0.1,0.1-0.1,0.1-0.2c-0.1-0.2-0.2-0.5-0.3-0.5c-0.3-0.1-0.6-0.2-0.8,0.2c-0.1,0.3-0.4,0.4-0.5,0.7
			c-0.1,0.1-0.1,0.3-0.2,0.4C35.8,23.7,36,22.8,36.8,23.2z M38.1,16.1L38,16.2c0.3,0.4,0.5,0.8,0.8,1.2c0.1-0.1,0.2-0.2,0.4-0.3
			C38.8,16.8,38.5,16.4,38.1,16.1z"/>
		<path class="st0" d="M54.9,17.3c-0.5-0.2-1-0.3-1.4-0.5c-0.1-0.1-0.2-0.3-0.2-0.4c0-0.1,0-0.2-0.1-0.3c-0.4-0.7-0.4-0.9,0.4-0.9
			c0.7-0.1,1.4-0.1,2,0c0.4,0.1,0.7,0.4,1,0.7c0.1,0.1,0.1,0.6-0.1,0.6C56,16.8,55.4,17,54.9,17.3z"/>
		<path class="st0" d="M61.8,11.7c0,0.3-0.8,0.8-1.1,0.7c-0.7-0.3-1.4-0.7-2-1.2c-0.3-0.2-0.1-0.5,0.2-0.5c0.5-0.1,1-0.2,1.5-0.2
			c0.3,0,0.6,0.2,0.8,0.4C61.5,11.1,61.6,11.4,61.8,11.7z"/>
		<path class="st0" d="M66,51.5c-0.5,0-0.8-0.3-0.8-0.8s0.5-0.9,0.9-0.8c0.5,0,0.8,0.3,0.8,0.8C67,51.1,66.6,51.5,66,51.5z"/>
	</g>
</g>
<path id="shape_3" class="st0" d="M892.3,79.5l5.3-19c-3.3-5.6-4.9-11.9-4.9-18.4c0-20.4,16.6-37,36.9-37c9.9,0,19.2,3.8,26.1,10.8
	s10.7,16.2,10.7,26.1c0,20.3-16.6,36.9-36.9,36.9l0,0l0,0c-6.2,0-12.2-1.6-17.6-4.5L892.3,79.5z"/>
<g id="shape_1">
	<g>
		<path class="st0" d="M920,26c-0.7-1.6-1.5-1.6-2.1-1.7c-0.6,0-1.2,0-1.8,0c-0.7,0-1.7,0.2-2.6,1.2c-0.9,1-3.4,3.3-3.4,8
			s3.4,9.2,3.9,9.9c0.4,0.7,6.6,10.5,16.3,14.3c8.1,3.1,9.8,2.6,11.4,2.4c1.8-0.1,5.6-2.4,6.4-4.5c0.8-2.2,0.8-4.1,0.6-4.5
			s-0.9-0.7-1.8-1.1c-1-0.4-5.6-2.8-6.5-3.1s-1.5-0.4-2.1,0.4c-0.7,1-2.5,3.1-3,3.7c-0.6,0.7-1.1,0.7-2,0.2c-1-0.4-4-1.5-7.6-4.7
			c-2.8-2.6-4.7-5.6-5.3-6.6s-0.1-1.5,0.4-1.9c0.4-0.4,1-1.1,1.5-1.7c0.4-0.6,0.7-1,1-1.6c0.3-0.7,0.1-1.2-0.1-1.7
			C922.7,32.5,920.8,27.8,920,26z"/>
	</g>
</g>
<g>
	<path class="st0" d="M173,37.6c-0.6,0-1.1,0.5-1.1,1.1v4.6c0,0.6,0.5,1.1,1.1,1.1s1.1-0.5,1.1-1.1v-4.6
		C174.1,38.1,173.6,37.6,173,37.6z"/>
	<path class="st0" d="M160.1,37.6c-0.6,0-1.1,0.5-1.1,1.1v4.6c0,0.6,0.5,1.1,1.1,1.1s1.1-0.5,1.1-1.1v-4.6
		C161.2,38.1,160.7,37.6,160.1,37.6z"/>
	<path class="st0" d="M168.9,33.4l0.8-1.4c0-0.1,0-0.2-0.1-0.2c0,0,0,0-0.1,0s-0.1,0-0.1,0.1l-0.8,1.4c-0.6-0.3-1.4-0.4-2.1-0.4
		c-0.8,0-1.5,0.2-2.1,0.4l-0.8-1.4c0-0.1-0.1-0.1-0.1-0.1h-0.1c-0.1,0-0.1,0.1-0.1,0.2l0.8,1.4c-1.5,0.8-2.5,2.3-2.5,3.9h9.8
		C171.5,35.7,170.4,34.2,168.9,33.4z M164.3,35.6c-0.2,0-0.4-0.2-0.4-0.4s0.2-0.4,0.4-0.4s0.4,0.2,0.4,0.4
		C164.7,35.4,164.5,35.6,164.3,35.6z M168.8,35.6c-0.2,0-0.4-0.2-0.4-0.4s0.2-0.4,0.4-0.4s0.4,0.2,0.4,0.4
		C169.2,35.4,169,35.6,168.8,35.6z"/>
	<path class="st0" d="M161.6,44.9c0,0.7,0.5,1.2,1.2,1.2h0.8v2.4c0,0.6,0.5,1.1,1.1,1.1s1.1-0.5,1.1-1.1v-2.4h1.5v2.4
		c0,0.6,0.5,1.1,1.1,1.1s1.1-0.5,1.1-1.1v-2.4h0.8c0.7,0,1.2-0.5,1.2-1.2v-7.1h-9.8v7.1H161.6z"/>
</g>
<title>Artbox</title>
<desc>Created with Sketch.</desc>
<g>
	<ellipse class="st0" cx="1261.4" cy="47.6" rx="5.9" ry="5.9"/>
	<path class="st0" d="M1213.7,36L1213.7,36c-0.1-0.1-0.1-0.1-0.1-0.2c0-3-2.4-5.4-5.3-5.4c-2.9,0-5.3,2.4-5.3,5.4c0,0,0,0.1,0,0.1
		l-0.1,0l0,26.7h0.1c0,2.9,2.4,5.3,5.3,5.3c2.9,0,5.3-2.4,5.3-5.3h0.1L1213.7,36z"/>
	<path class="st0" d="M1195.7,59.6l-9.7-13.1l7-6.9l-0.1-0.1c0.9-1,1.5-2.3,1.5-3.7c0-3-2.4-5.4-5.4-5.4c-1.6,0-3,0.7-4,1.8l0,0
		l-9.9,9.7l-0.1-19.7l-0.1,0c0-0.1,0-0.2,0-0.3c0-3-2.4-5.4-5.3-5.4c-2.9,0-5.3,2.4-5.3,5.4c0,0.1,0,0.1,0,0.2l-0.1,0l0,40.5l0.1,0
		c0,0,0,0.1,0,0.1c0,2.9,2.3,5.3,5.2,5.3c2.8,0,5.1-2.2,5.2-5l0.1,0l0-7l2.7-2.5l8.8,11.8c0.9,1.6,2.6,2.7,4.6,2.7
		c2.9,0,5.3-2.4,5.3-5.4C1196.5,61.5,1196.2,60.5,1195.7,59.6L1195.7,59.6z"/>
	<path class="st0" d="M1252.5,59.6l-9.7-13.1l7-6.9l-0.1-0.1c0.9-1,1.5-2.3,1.5-3.7c0-3-2.4-5.4-5.4-5.4c-1.6,0-3,0.7-4,1.8l0,0
		l-9.9,9.7l-0.1-19.7l-0.1,0c0-0.1,0-0.2,0-0.3c0-3-2.4-5.4-5.3-5.4c-2.9,0-5.3,2.4-5.3,5.4c0,0.1,0,0.1,0,0.2l-0.1,0l0,40.5l0.1,0
		c0,0,0,0.1,0,0.1c0,2.9,2.3,5.3,5.2,5.3c2.8,0,5.1-2.2,5.2-5l0.1,0l0-7l2.7-2.5l8.9,11.8c0.9,1.6,2.6,2.7,4.6,2.7
		c2.9,0,5.3-2.4,5.3-5.4C1253.3,61.5,1253,60.5,1252.5,59.6L1252.5,59.6z"/>
</g>
</svg>
