<?xml version="1.0" encoding="utf-8"?>
<!-- Generator: Adobe Illustrator 19.2.0, SVG Export Plug-In . SVG Version: 6.00 Build 0)  -->
<!DOCTYPE svg PUBLIC "-//W3C//DTD SVG 1.1//EN" "http://www.w3.org/Graphics/SVG/1.1/DTD/svg11.dtd">
<svg version="1.1" id="Layer_1" xmlns="http://www.w3.org/2000/svg" xmlns:xlink="http://www.w3.org/1999/xlink" x="0px" y="0px"
	 viewBox="0 0 76.2 76.2" style="enable-background:new 0 0 76.2 76.2;" xml:space="preserve">
<style type="text/css">
	.st0{fill:#E9A823;}
	.st1{fill:#3FB991;}
	.st2{fill:#E11765;}
	.st3{fill:#472A49;}
	.st4{fill:#CD2027;}
	.st5{fill:#71CBDC;}
	.st6{fill:#1D947E;}
	.st7{fill:#66873A;}
</style>
<g>
	<g>
		<path class="st0" d="M49.4,4.8c-1.2-3.6-5-5.5-8.5-4.3c-3.6,1.2-5.5,5-4.3,8.5l17.5,53.8c1.2,3.3,4.8,5.2,8.2,4.2
			c3.6-1,5.8-4.8,4.6-8.4C66.9,58.5,49.4,4.8,49.4,4.8z"/>
		<path class="st1" d="M22.3,13.6c-1.2-3.6-5-5.5-8.5-4.3s-5.5,5-4.3,8.5l17.5,53.8c1.2,3.3,4.8,5.2,8.2,4.2c3.6-1,5.8-4.8,4.6-8.4
			C39.8,67.3,22.3,13.6,22.3,13.6z"/>
		<path class="st2" d="M71.5,49.4c3.6-1.2,5.5-5,4.3-8.5c-1.2-3.6-5-5.5-8.5-4.3L13.4,54c-3.3,1.2-5.2,4.8-4.2,8.2
			c1,3.6,4.8,5.8,8.4,4.6C17.7,66.8,71.5,49.4,71.5,49.4z"/>
		<path class="st3" d="M24.7,64.6c3.5-1.1,8-2.6,12.9-4.2c-1.1-3.5-2.6-8-4.2-12.9l-12.9,4.2L24.7,64.6z"/>
		<path class="st4" d="M51.8,55.8c4.9-1.6,9.4-3,12.9-4.2c-1.1-3.5-2.6-8-4.2-12.9l-12.9,4.2L51.8,55.8z"/>
		<path class="st5" d="M62.6,22.3c3.6-1.2,5.5-5,4.3-8.5s-5-5.5-8.5-4.3L4.6,26.9c-3.3,1.2-5.2,4.8-4.2,8.2c1,3.6,4.8,5.8,8.4,4.6
			C8.9,39.7,62.6,22.3,62.6,22.3z"/>
		<path class="st6" d="M15.8,37.5c3.5-1.1,8-2.6,12.9-4.2c-1.6-4.9-3-9.4-4.2-12.9l-12.9,4.2L15.8,37.5z"/>
		<path class="st7" d="M43,28.7c4.9-1.6,9.4-3.1,12.9-4.2c-1.6-4.9-3.1-9.4-4.2-12.9l-12.9,4.2L43,28.7z"/>
	</g>
</g>
</svg>
