<?xml version="1.0" encoding="utf-8"?>
<!-- Generator: Adobe Illustrator 19.2.0, SVG Export Plug-In . SVG Version: 6.00 Build 0)  -->
<!DOCTYPE svg PUBLIC "-//W3C//DTD SVG 1.1//EN" "http://www.w3.org/Graphics/SVG/1.1/DTD/svg11.dtd">
<svg version="1.1" id="Layer_1" xmlns="http://www.w3.org/2000/svg" xmlns:xlink="http://www.w3.org/1999/xlink" x="0px" y="0px"
	 viewBox="0 0 76.2 76.2" style="enable-background:new 0 0 76.2 76.2;" xml:space="preserve">
<style type="text/css">
	.st0{fill:url(#SVGID_1_);}
	.st1{fill:url(#SVGID_2_);}
	.st2{fill:url(#SVGID_3_);}
</style>
<g>
	<linearGradient id="SVGID_1_" gradientUnits="userSpaceOnUse" x1="33.7667" y1="54.3333" x2="33.7667" y2="9.98">
		<stop  offset="0" style="stop-color:#15FF99"/>
		<stop  offset="1" style="stop-color:#00BF5C"/>
	</linearGradient>
	<path class="st0" d="M6.8,24.7c0-2.2,1.7-3.9,3.9-3.9h56.1v-1.4c0-2.2-1.7-3.9-3.9-3.9H4.6c-2.2,0-3.9,1.7-3.9,3.9v24.3
		c0,2.2,1.7,3.9,3.9,3.9h2.2V24.7z"/>
	<linearGradient id="SVGID_2_" gradientUnits="userSpaceOnUse" x1="58.1347" y1="54.3333" x2="58.1347" y2="9.98">
		<stop  offset="0" style="stop-color:#15FF99"/>
		<stop  offset="1" style="stop-color:#00BF5C"/>
	</linearGradient>
	<path class="st1" d="M57.7,52.9h-0.8l1.3,1.3c0.3,0.3,0.8,0.4,1.2,0.4L57.7,52.9z"/>
</g>
<linearGradient id="SVGID_3_" gradientUnits="userSpaceOnUse" x1="42.4333" y1="21" x2="42.4333" y2="62.3387">
	<stop  offset="0" style="stop-color:#15FF99"/>
	<stop  offset="1" style="stop-color:#00BF5C"/>
</linearGradient>
<path class="st2" d="M71.6,23.5H13.3c-2.2,0-3.9,1.7-3.9,3.9v24.3c0,2.2,1.7,3.9,3.9,3.9h2.4v5.7c0,1.2,1.5,1.8,2.3,1l6.7-6.7h47
	c2.2,0,3.9-1.7,3.9-3.9V27.4C75.5,25.2,73.8,23.5,71.6,23.5z M21.3,36.1c0.4,0.3,1.4,0.8,3.1,1.6c1.6,0.7,2.7,1.5,3.4,2.3
	c0.6,0.8,0.9,1.9,0.9,3.1c0,1.2-0.3,2.2-0.9,3.1c-0.6,0.9-1.4,1.6-2.6,2.1c-1.1,0.5-2.4,0.7-3.9,0.7c-1.2,0-2.3-0.1-3.1-0.3
	c-0.8-0.2-1.7-0.5-2.6-0.9v-4.5c1,0.5,2,0.9,3,1.2c1,0.3,2,0.4,2.9,0.4c0.8,0,1.3-0.1,1.7-0.4c0.4-0.3,0.5-0.6,0.5-1
	c0-0.3-0.1-0.5-0.2-0.7c-0.1-0.2-0.4-0.4-0.7-0.6c-0.3-0.2-1.1-0.6-2.5-1.2c-1.2-0.6-2.1-1.1-2.7-1.6c-0.6-0.5-1.1-1.1-1.4-1.8
	c-0.3-0.7-0.4-1.5-0.4-2.4c0-1.7,0.6-3.1,1.9-4c1.3-1,3-1.4,5.2-1.4c1.9,0,3.9,0.4,5.9,1.3l-1.6,3.9c-1.8-0.8-3.3-1.2-4.5-1.2
	c-0.7,0-1.1,0.1-1.4,0.3c-0.3,0.2-0.4,0.5-0.4,0.9C20.7,35.5,20.9,35.8,21.3,36.1z M53,48.9h-4.7v-8.2c0-0.4,0-0.9,0-1.4
	c0-0.5,0.1-1.8,0.2-3.8h-0.1l-3.8,13.5h-4.8l-3.8-13.5h-0.1c0.2,2.3,0.3,4.1,0.3,5.4v8.1h-4.5V30.2h6.7l3.9,13.3h0.1l3.8-13.3H53
	V48.9z M61.8,36.1c0.4,0.3,1.4,0.8,3.1,1.6c1.6,0.7,2.7,1.5,3.4,2.3c0.6,0.8,0.9,1.9,0.9,3.1c0,1.2-0.3,2.2-0.9,3.1
	c-0.6,0.9-1.4,1.6-2.6,2.1c-1.1,0.5-2.4,0.7-3.9,0.7c-1.2,0-2.3-0.1-3.1-0.3c-0.8-0.2-1.7-0.5-2.6-0.9v-4.5c1,0.5,2,0.9,3,1.2
	c1,0.3,2,0.4,2.9,0.4c0.8,0,1.3-0.1,1.7-0.4c0.4-0.3,0.5-0.6,0.5-1c0-0.3-0.1-0.5-0.2-0.7s-0.4-0.4-0.7-0.6
	c-0.3-0.2-1.1-0.6-2.5-1.2c-1.2-0.6-2.1-1.1-2.7-1.6c-0.6-0.5-1.1-1.1-1.4-1.8c-0.3-0.7-0.4-1.5-0.4-2.4c0-1.7,0.6-3.1,1.9-4
	c1.3-1,3-1.4,5.2-1.4c1.9,0,3.9,0.4,5.9,1.3l-1.6,3.9c-1.8-0.8-3.3-1.2-4.5-1.2c-0.7,0-1.1,0.1-1.4,0.3c-0.3,0.2-0.4,0.5-0.4,0.9
	C61.3,35.5,61.5,35.8,61.8,36.1z"/>
</svg>
