<?xml version="1.0" encoding="utf-8"?>
<!-- Generator: Adobe Illustrator 19.2.1, SVG Export Plug-In . SVG Version: 6.00 Build 0)  -->
<!DOCTYPE svg PUBLIC "-//W3C//DTD SVG 1.1//EN" "http://www.w3.org/Graphics/SVG/1.1/DTD/svg11.dtd">
<svg version="1.1" id="Layer_1" xmlns="http://www.w3.org/2000/svg" xmlns:xlink="http://www.w3.org/1999/xlink" x="0px" y="0px"
	 viewBox="0 0 141 60" style="enable-background:new 0 0 141 60;" xml:space="preserve">
<style type="text/css">
	.st0{fill:#CCCCCC;}
</style>
<path class="st0" d="M133.7,37.8v-7.1c0-1.6-0.5-2-1.4-2s-1.5,0.4-1.5,2v7.1h-4.2V22.2l4.2-1.7v5.7c0.8-0.6,1.7-1.1,3.2-1.1
	c2.7,0,4,1.8,4,5.1v7.6H133.7z M119.2,38c-3.7,0-5.9-2.3-5.9-6.5c0-3.8,2-6.4,6-6.4c2.3,0,3.7,1.1,4.7,2.8l-2.9,2.2
	c-0.6-1.1-1-1.6-1.9-1.6c-1.1,0-1.6,1.1-1.6,3c0,2,0.5,3,1.7,3c0.8,0,1.4-0.5,2.2-1.6l2.7,2.1C122.7,37.2,121.4,38,119.2,38
	L119.2,38z M106.6,37.8v-7.1c0-1.6-0.6-2-1.5-2s-1.4,0.4-1.4,2v7.1h-4.3V25.3h4.3v0.8c0.8-0.6,1.7-1.1,3.1-1.1
	c2.7,0,4.1,1.8,4.1,5.1v7.6C110.9,37.8,106.6,37.8,106.6,37.8z M92.1,37.8v-0.8C91.3,37.5,90.4,38,89,38c-2.7,0-4-1.8-4-5.1v-7.6
	h4.3v7.1c0,1.6,0.5,2,1.4,2c0.9,0,1.4-0.4,1.4-2v-7.1h4.3v12.4H92.1z M81.9,30c-0.5-0.6-1.2-1-2-1c-1,0-1.7,0.5-1.7,2v6.8H74V25.3
	h4.3v0.9c0.7-0.7,1.6-1.2,2.7-1.2c0.9,0,1.5,0.2,2,0.5C82.9,25.6,81.9,30,81.9,30z M64.5,38c-4.9,0-7.6-3.7-7.6-8.6
	c0-5.3,3.1-8.5,7.6-8.5c4.1,0,5.7,1.8,6.8,4.9l-4.2,1.6c-0.6-1.5-1.2-2.5-2.7-2.5c-1.9,0-2.8,1.9-2.8,4.5c0,2.5,0.8,4.5,2.8,4.5
	c1.4,0,2.1-0.8,3-2.3l3.9,2.1C70.3,35.9,68.5,38,64.5,38z M50.1,37.8v-7.1c0-1.6-0.5-2-1.4-2c-0.9,0-1.4,0.4-1.4,2v7.1h-4.3V22.2
	l4.3-1.7v5.7c0.8-0.6,1.7-1.1,3.1-1.1c2.7,0,4,1.8,4,5.1v7.6C54.3,37.8,50.1,37.8,50.1,37.8z M35.5,38c-3.6,0-5.8-2.3-5.8-6.5
	c0-3.8,1.9-6.4,5.9-6.4c2.3,0,3.7,1.1,4.8,2.8l-2.9,2.2c-0.6-1.1-1-1.6-1.9-1.6c-1.1,0-1.6,1.1-1.6,3c0,2,0.6,3,1.8,3
	c0.8,0,1.4-0.5,2.2-1.6l2.7,2.1C39.1,37.2,37.7,38,35.5,38z M27.6,32.8h-7.3c0.1,1.4,1,2,2.1,2c1.1,0,2-0.2,3.2-0.9l1.6,2.7
	c-1.5,0.9-3.1,1.4-5.1,1.4c-3.7,0-5.8-2.7-5.8-6.5c0-4.3,2.4-6.5,5.7-6.5c3.4,0,5.5,2.2,5.5,6.9C27.6,32.3,27.6,32.6,27.6,32.8
	L27.6,32.8z M21.9,28.2c-1,0-1.5,0.7-1.7,1.9h3.6C23.6,28.9,23.2,28.2,21.9,28.2z M12.2,25.2v12.6H7.6V25.2H3v-4h13.9v4H12.2z"/>
</svg>
