<?xml version="1.0" encoding="utf-8"?>
<!-- Generator: Adobe Illustrator 19.2.1, SVG Export Plug-In . SVG Version: 6.00 Build 0)  -->
<!DOCTYPE svg PUBLIC "-//W3C//DTD SVG 1.1//EN" "http://www.w3.org/Graphics/SVG/1.1/DTD/svg11.dtd">
<svg version="1.1" id="Layer_1" xmlns="http://www.w3.org/2000/svg" xmlns:xlink="http://www.w3.org/1999/xlink" x="0px" y="0px"
	 viewBox="0 0 141 60" style="enable-background:new 0 0 141 60;" xml:space="preserve">
<style type="text/css">
	.st0{fill:#CCCCCC;}
</style>
<g>
	<path class="st0" d="M66.8,23.4c-1.3-1.3-3.1-2.1-5-2.1H51.6V40h7V28.4h2.2c0.6,0,1.2,0.2,1.7,0.7l2.4,2.4c0.4,0.4,0.7,1,0.7,1.7
		V40h7v-7.9c0-1.9-0.7-3.6-2.1-5L66.8,23.4z"/>
	<path class="st0" d="M103,21.3v6.9c0,0.6-0.2,1.2-0.7,1.7l-2.4,2.4c-0.4,0.4-1,0.7-1.7,0.7H96h-1.1c0.7-1.1,1.1-2.4,1.1-3.8v-7.9
		h-7v6.9c0,0.6-0.2,1.2-0.7,1.7l-2.4,2.4c-0.4,0.4-1,0.7-1.7,0.7H82V21.3h-7V40h10.2c1.9,0,3.6-0.7,5-2.1l2.3-2.3V40h6.7
		c1.9,0,3.6-0.7,5-2.1l3.8-3.8c1.3-1.3,2.1-3.1,2.1-5v-7.9H103z"/>
	<polygon class="st0" points="32.8,28.4 37.5,28.4 37.5,40 44.5,40 44.5,28.4 49.2,28.4 49.2,21.3 32.8,21.3 	"/>
</g>
</svg>
